<svg width="32" height="33" viewBox="0 0 32 33" fill="none" xmlns="http://www.w3.org/2000/svg">
<path d="M21.5 8.37585C21.5 8.23835 21.3875 8.12585 21.25 8.12585H9.25C9.1125 8.12585 9 8.23835 9 8.37585V9.87585C9 10.0134 9.1125 10.1259 9.25 10.1259H21.25C21.3875 10.1259 21.5 10.0134 21.5 9.87585V8.37585ZM21.25 12.6259H9.25C9.1125 12.6259 9 12.7384 9 12.8759V14.3759C9 14.5134 9.1125 14.6259 9.25 14.6259H21.25C21.3875 14.6259 21.5 14.5134 21.5 14.3759V12.8759C21.5 12.7384 21.3875 12.6259 21.25 12.6259ZM15 17.1259H9.25C9.1125 17.1259 9 17.2384 9 17.3759V18.8759C9 19.0134 9.1125 19.1259 9.25 19.1259H15C15.1375 19.1259 15.25 19.0134 15.25 18.8759V17.3759C15.25 17.2384 15.1375 17.1259 15 17.1259ZM13.5 26.7509H6.5V4.75085H24V15.5009C24 15.6384 24.1125 15.7509 24.25 15.7509H26C26.1375 15.7509 26.25 15.6384 26.25 15.5009V3.50085C26.25 2.94773 25.8031 2.50085 25.25 2.50085H5.25C4.69688 2.50085 4.25 2.94773 4.25 3.50085V28.0009C4.25 28.554 4.69688 29.0009 5.25 29.0009H13.5C13.6375 29.0009 13.75 28.8884 13.75 28.7509V27.0009C13.75 26.8634 13.6375 26.7509 13.5 26.7509ZM24.65 24.4259C25.5563 23.604 26.125 22.4165 26.125 21.0946C26.125 18.6102 24.1094 16.5946 21.625 16.5946C19.1406 16.5946 17.125 18.6102 17.125 21.0946C17.125 22.4165 17.6938 23.604 18.6 24.4259C16.8188 25.4415 15.5938 27.3227 15.5 29.4915C15.4938 29.6321 15.6094 29.7509 15.75 29.7509H17.2531C17.3844 29.7509 17.4938 29.6477 17.5031 29.5134C17.625 27.3509 19.4281 25.6259 21.625 25.6259C23.8219 25.6259 25.625 27.3509 25.7469 29.5134C25.7531 29.6446 25.8625 29.7509 25.9969 29.7509H27.5C27.6438 29.7509 27.7563 29.6321 27.75 29.4915C27.6594 27.3196 26.4313 25.4415 24.65 24.4259ZM21.625 18.5946C23.0063 18.5946 24.125 19.7134 24.125 21.0946C24.125 22.4759 23.0063 23.5946 21.625 23.5946C20.2438 23.5946 19.125 22.4759 19.125 21.0946C19.125 19.7134 20.2438 18.5946 21.625 18.5946Z" fill="#4A5F98"/>
</svg>
