<svg width="32" height="33" viewBox="0 0 32 33" fill="none" xmlns="http://www.w3.org/2000/svg">
<path d="M28.9375 5.25085H2.9375C2.38437 5.25085 1.9375 5.69773 1.9375 6.25085V26.2509C1.9375 26.804 2.38437 27.2509 2.9375 27.2509H28.9375C29.4906 27.2509 29.9375 26.804 29.9375 26.2509V6.25085C29.9375 5.69773 29.4906 5.25085 28.9375 5.25085ZM27.6875 25.0009H4.1875V7.50085H27.6875V25.0009ZM7.09688 22.429C7.19375 22.5259 7.35312 22.5259 7.45 22.429L12.8406 17.0384L16.4156 20.6165C16.5125 20.7134 16.6719 20.7134 16.7687 20.6165L26.05 11.329C26.1469 11.2321 26.1469 11.0727 26.05 10.9759L24.9 9.82585C24.853 9.77933 24.7896 9.75323 24.7234 9.75323C24.6573 9.75323 24.5939 9.77933 24.5469 9.82585L16.5938 17.7821L13.0188 14.204C12.9718 14.1575 12.9083 14.1314 12.8422 14.1314C12.7761 14.1314 12.7126 14.1575 12.6656 14.204L5.95 20.9227C5.90347 20.9697 5.87738 21.0332 5.87738 21.0993C5.87738 21.1654 5.90347 21.2289 5.95 21.2759L7.09688 22.429V22.429Z" fill="#4A5F98"/>
</svg>
