<svg width="32" height="32" viewBox="0 0 32 32" fill="none" xmlns="http://www.w3.org/2000/svg">
<path d="M29.5784 15.7812L17.5034 3.71249L16.694 2.90311C16.5096 2.71991 16.2602 2.6171 16.0002 2.6171C15.7403 2.6171 15.4909 2.71991 15.3065 2.90311L2.4221 15.7812C2.23314 15.9695 2.08379 16.1936 1.98289 16.4405C1.88199 16.6874 1.83156 16.952 1.8346 17.2187C1.8471 18.3187 2.76273 19.1969 3.86273 19.1969H5.19085V29.375H26.8096V19.1969H28.1659C28.7002 19.1969 29.2034 18.9875 29.5815 18.6094C29.7677 18.4238 29.9152 18.2031 30.0155 17.9601C30.1158 17.7171 30.1669 17.4566 30.1659 17.1937C30.1659 16.6625 29.9565 16.1594 29.5784 15.7812V15.7812ZM17.7502 27.125H14.2502V20.75H17.7502V27.125ZM24.5596 16.9469V27.125H19.7502V20C19.7502 19.3094 19.1909 18.75 18.5002 18.75H13.5002C12.8096 18.75 12.2502 19.3094 12.2502 20V27.125H7.44085V16.9469H4.44085L16.0034 5.39374L16.7252 6.11561L27.5627 16.9469H24.5596Z" fill="#4A5F98"/>
</svg>
