<svg width="32" height="32" viewBox="0 0 32 32" fill="none" xmlns="http://www.w3.org/2000/svg">
<path d="M27.8749 24.125H25.3749V21.625C25.3749 21.4875 25.2624 21.375 25.1249 21.375H23.6249C23.4874 21.375 23.3749 21.4875 23.3749 21.625V24.125H20.8749C20.7374 24.125 20.6249 24.2375 20.6249 24.375V25.875C20.6249 26.0125 20.7374 26.125 20.8749 26.125H23.3749V28.625C23.3749 28.7625 23.4874 28.875 23.6249 28.875H25.1249C25.2624 28.875 25.3749 28.7625 25.3749 28.625V26.125H27.8749C28.0124 26.125 28.1249 26.0125 28.1249 25.875V24.375C28.1249 24.2375 28.0124 24.125 27.8749 24.125ZM11.6718 15.575C11.6436 15.3031 11.628 15.0281 11.628 14.75C11.628 14.2531 11.6749 13.7688 11.7624 13.2969C11.7843 13.1844 11.7249 13.0688 11.6218 13.0219C11.1968 12.8313 10.8061 12.5688 10.4686 12.2375C10.0709 11.8519 9.758 11.3876 9.54977 10.8743C9.34154 10.361 9.2426 9.80994 9.25926 9.25625C9.28738 8.25313 9.69051 7.3 10.3936 6.58125C11.1655 5.79063 12.203 5.35938 13.3061 5.37188C14.303 5.38125 15.2655 5.76563 15.9936 6.44688C16.2405 6.67813 16.453 6.93438 16.6311 7.20938C16.6936 7.30625 16.8155 7.34688 16.9218 7.30938C17.4718 7.11875 18.053 6.98438 18.6499 6.92188C18.8249 6.90313 18.9249 6.71563 18.8468 6.55938C17.8311 4.55 15.7561 3.1625 13.3561 3.125C9.89363 3.07188 7.00613 5.9125 7.00613 9.375C7.00613 11.3375 7.90926 13.0875 9.32488 14.2344C8.33113 14.6938 7.41551 15.3281 6.62176 16.1219C4.90926 17.8313 3.94051 20.0875 3.87801 22.4969C3.87717 22.5302 3.88302 22.5634 3.89521 22.5945C3.9074 22.6255 3.92569 22.6538 3.94898 22.6777C3.97228 22.7016 4.00013 22.7206 4.03087 22.7335C4.06162 22.7465 4.09465 22.7531 4.12801 22.7531H5.88113C6.01551 22.7531 6.12801 22.6469 6.13113 22.5125C6.19051 20.7 6.92488 19.0031 8.21551 17.7156C9.13426 16.7969 10.2593 16.1594 11.4874 15.85C11.6061 15.8156 11.6874 15.7 11.6718 15.575V15.575ZM25.7499 14.75C25.7499 11.3313 23.003 8.55313 19.5968 8.5C16.1343 8.44688 13.2499 11.2875 13.2499 14.75C13.2499 16.7125 14.1561 18.4625 15.5686 19.6094C14.5646 20.0748 13.6506 20.7138 12.8686 21.4969C11.1561 23.2063 10.1874 25.4625 10.1249 27.8687C10.124 27.9021 10.1299 27.9353 10.1421 27.9663C10.1543 27.9974 10.1726 28.0257 10.1959 28.0496C10.2192 28.0735 10.247 28.0924 10.2777 28.1054C10.3085 28.1183 10.3415 28.125 10.3749 28.125H12.1249C12.2593 28.125 12.3718 28.0187 12.3749 27.8844C12.4343 26.0719 13.1686 24.375 14.4593 23.0875C15.8061 21.7406 17.5936 21 19.4999 21C22.9499 21 25.7499 18.2031 25.7499 14.75ZM22.328 17.5781C21.5718 18.3344 20.5686 18.75 19.4999 18.75C18.4311 18.75 17.428 18.3344 16.6718 17.5781C16.2944 17.2027 15.9962 16.7554 15.7949 16.2626C15.5936 15.7698 15.4933 15.2416 15.4999 14.7094C15.5093 13.6844 15.9186 12.6938 16.6343 11.9594C17.3843 11.1906 18.3874 10.7625 19.4593 10.75C20.5186 10.7406 21.5468 11.1531 22.303 11.8938C23.078 12.6531 23.503 13.6688 23.503 14.75C23.4999 15.8188 23.0843 16.8219 22.328 17.5781V17.5781Z" fill="#4A5F98"/>
</svg>
