<svg width="32" height="33" viewBox="0 0 32 33" fill="none" xmlns="http://www.w3.org/2000/svg">
<path d="M27.8749 24.2509H25.3749V21.7509C25.3749 21.6134 25.2624 21.5009 25.1249 21.5009H23.6249C23.4874 21.5009 23.3749 21.6134 23.3749 21.7509V24.2509H20.8749C20.7374 24.2509 20.6249 24.3634 20.6249 24.5009V26.0009C20.6249 26.1384 20.7374 26.2509 20.8749 26.2509H23.3749V28.7509C23.3749 28.8884 23.4874 29.0009 23.6249 29.0009H25.1249C25.2624 29.0009 25.3749 28.8884 25.3749 28.7509V26.2509H27.8749C28.0124 26.2509 28.1249 26.1384 28.1249 26.0009V24.5009C28.1249 24.3634 28.0124 24.2509 27.8749 24.2509ZM11.6718 15.7009C11.6436 15.429 11.628 15.154 11.628 14.8759C11.628 14.379 11.6749 13.8946 11.7624 13.4227C11.7843 13.3102 11.7249 13.1946 11.6218 13.1477C11.1968 12.9571 10.8061 12.6946 10.4686 12.3634C10.0709 11.9778 9.758 11.5135 9.54977 11.0002C9.34154 10.4869 9.2426 9.93579 9.25926 9.38211C9.28738 8.37898 9.69051 7.42586 10.3936 6.70711C11.1655 5.91648 12.203 5.48523 13.3061 5.49773C14.303 5.50711 15.2655 5.89148 15.9936 6.57273C16.2405 6.80398 16.453 7.06023 16.6311 7.33523C16.6936 7.43211 16.8155 7.47273 16.9218 7.43523C17.4718 7.24461 18.053 7.11023 18.6499 7.04773C18.8249 7.02898 18.9249 6.84148 18.8468 6.68523C17.8311 4.67585 15.7561 3.28836 13.3561 3.25086C9.89363 3.19773 7.00613 6.03836 7.00613 9.50086C7.00613 11.4634 7.90926 13.2134 9.32488 14.3602C8.33113 14.8196 7.41551 15.454 6.62176 16.2477C4.90926 17.9571 3.94051 20.2134 3.87801 22.6227C3.87717 22.6561 3.88302 22.6893 3.89521 22.7203C3.9074 22.7514 3.92569 22.7797 3.94898 22.8036C3.97228 22.8274 4.00013 22.8464 4.03087 22.8594C4.06162 22.8723 4.09465 22.879 4.12801 22.879H5.88113C6.01551 22.879 6.12801 22.7727 6.13113 22.6384C6.19051 20.8259 6.92488 19.129 8.21551 17.8415C9.13426 16.9227 10.2593 16.2852 11.4874 15.9759C11.6061 15.9415 11.6874 15.8259 11.6718 15.7009V15.7009ZM25.7499 14.8759C25.7499 11.4571 23.003 8.67898 19.5968 8.62586C16.1343 8.57273 13.2499 11.4134 13.2499 14.8759C13.2499 16.8384 14.1561 18.5884 15.5686 19.7352C14.5646 20.2006 13.6506 20.8396 12.8686 21.6227C11.1561 23.3321 10.1874 25.5884 10.1249 27.9946C10.124 28.028 10.1299 28.0611 10.1421 28.0922C10.1543 28.1233 10.1726 28.1516 10.1959 28.1754C10.2192 28.1993 10.247 28.2183 10.2777 28.2312C10.3085 28.2442 10.3415 28.2509 10.3749 28.2509H12.1249C12.2593 28.2509 12.3718 28.1446 12.3749 28.0102C12.4343 26.1977 13.1686 24.5009 14.4593 23.2134C15.8061 21.8665 17.5936 21.1259 19.4999 21.1259C22.9499 21.1259 25.7499 18.329 25.7499 14.8759ZM22.328 17.704C21.5718 18.4602 20.5686 18.8759 19.4999 18.8759C18.4311 18.8759 17.428 18.4602 16.6718 17.704C16.2944 17.3286 15.9962 16.8812 15.7949 16.3884C15.5936 15.8957 15.4933 15.3675 15.4999 14.8352C15.5093 13.8102 15.9186 12.8196 16.6343 12.0852C17.3843 11.3165 18.3874 10.8884 19.4593 10.8759C20.5186 10.8665 21.5468 11.279 22.303 12.0196C23.078 12.779 23.503 13.7946 23.503 14.8759C23.4999 15.9446 23.0843 16.9477 22.328 17.704V17.704Z" fill="#4A5F98"/>
</svg>
