<svg width="28" height="28" viewBox="0 0 28 28" fill="none" xmlns="http://www.w3.org/2000/svg">
<g id="AiFillBank">
<path id="Vector" d="M24.4443 12.6334C25.2893 12.6334 25.642 11.5479 24.9557 11.0475L14.5131 3.45137C14.364 3.34211 14.1839 3.2832 13.999 3.2832C13.8142 3.2832 13.6341 3.34211 13.485 3.45137L3.04239 11.0475C2.35606 11.5451 2.7088 12.6334 3.55645 12.6334H5.24903V22.86H3.28028C3.15997 22.86 3.06153 22.9584 3.06153 23.0787V24.5006C3.06153 24.6209 3.15997 24.7193 3.28028 24.7193H24.7178C24.8381 24.7193 24.9365 24.6209 24.9365 24.5006V23.0787C24.9365 22.9584 24.8381 22.86 24.7178 22.86H22.749V12.6334H24.4443ZM10.417 22.86H7.21778V12.6334H10.417V22.86ZM15.585 22.86H12.3857V12.6334H15.585V22.86ZM20.7803 22.86H17.5537V12.6334H20.7803V22.86Z" fill="#1D428A"/>
</g>
</svg>
