<svg width="23" height="24" viewBox="0 0 23 24" fill="none" xmlns="http://www.w3.org/2000/svg">
<g id="Frame" clip-path="url(#clip0_1634_1141)">
<g id="Group">
<g id="Layer 2">
<g id="Group_2">
<g id="Group_3" style="mix-blend-mode:multiply" opacity="0.26">
<path id="Vector" opacity="0.59" d="M9.35768 17.9211C11.2565 17.9211 12.9757 17.1513 14.2199 15.9071C15.4644 14.6626 16.2339 12.9436 16.2339 11.0449C16.2339 7.24702 13.1553 4.1684 9.3574 4.1684C5.55955 4.1684 2.4812 7.24702 2.4812 11.0446C2.4812 14.8422 5.55983 17.9211 9.35768 17.9211Z" fill="white" stroke="#545454" stroke-width="0.0683568" stroke-miterlimit="10"/>
<path id="Vector_2" opacity="0.2" d="M9.35768 17.9211C11.2565 17.9211 12.9757 17.1513 14.2199 15.9071C15.4644 14.6626 16.2339 12.9436 16.2339 11.0449C16.2339 7.24702 13.1553 4.1684 9.3574 4.1684C5.55955 4.1684 2.4812 7.24702 2.4812 11.0446C2.4812 14.8422 5.55983 17.9211 9.35768 17.9211Z" stroke="#545454" stroke-width="0.704709" stroke-miterlimit="10" stroke-linecap="round"/>
<path id="Vector_3" opacity="0.2" d="M20.3373 23.4287L12.6917 15.9165L14.2108 14.3787L22.0344 21.6672L20.3373 23.4287Z" fill="#545454"/>
</g>
<g id="Group_4">
<path id="Vector_4" opacity="0.74" d="M8.82161 15.2397C10.7204 15.2397 12.4397 14.47 13.6839 13.2258C14.9284 11.9813 15.6978 10.2623 15.6978 8.36353C15.6978 4.56568 12.6192 1.48706 8.82133 1.48706C5.02348 1.48706 1.94513 4.5654 1.94513 8.36325C1.94513 12.1611 5.02376 15.2397 8.82161 15.2397Z" fill="white"/>
<path id="Vector_5" d="M8.82161 15.2397C10.7204 15.2397 12.4397 14.47 13.6839 13.2258C14.9284 11.9813 15.6978 10.2623 15.6978 8.36353C15.6978 4.56568 12.6192 1.48706 8.82133 1.48706C5.02348 1.48706 1.94513 4.5654 1.94513 8.36325C1.94513 12.1611 5.02376 15.2397 8.82161 15.2397Z" stroke="#331F40" stroke-width="1.78104" stroke-miterlimit="10" stroke-linecap="round"/>
<path id="Vector_6" d="M20.7559 20.212L13.6838 13.2253" stroke="#331F40" stroke-width="1.78104" stroke-miterlimit="10" stroke-linecap="square"/>
</g>
</g>
</g>
</g>
</g>
<defs>
<clipPath id="clip0_1634_1141">
<rect width="21.4202" height="23.0229" fill="white" transform="translate(0.864136 0.405396)"/>
</clipPath>
</defs>
</svg>
