<svg width="42" height="63" viewBox="0 0 42 63" fill="none" xmlns="http://www.w3.org/2000/svg">
<g id="Group">
<g id="Layer 2">
<g id="Group_2">
<g id="Group_3">
<path id="Vector" d="M4.14687 35.2845C4.14687 35.2845 1.12607 34.7759 1.46127 32.7893C1.81322 30.7026 4.14687 31.4716 4.14687 31.4716V35.2847V35.2845Z" fill="#EBBE8F"/>
<path id="Vector_2" d="M5.03294 30.9117C5.03294 30.9117 2.03502 30.4121 2.34734 28.4165C2.67428 26.3258 5.03294 27.0988 5.03294 27.0988V30.912V30.9117Z" fill="#EBBE8F"/>
</g>
<g id="Group_4">
<path id="Vector_3" d="M42 62.0285L37.0904 55.4423C36.7446 54.9785 36.4917 54.4523 36.3455 53.8925L33.9719 44.8112C33.0642 41.3385 31.6954 38.0032 29.9014 34.8945L24.9414 26.2987C24.3314 25.2414 23.3916 24.413 22.2662 23.94L15.3572 21.0372L21.8031 30.9117L18.6986 39.579H4.89598C3.81467 39.579 2.93787 40.4555 2.93787 41.5371C2.93787 42.6007 3.80004 43.4631 4.8639 43.4631H11.7835C12.8127 43.4631 13.7621 44.0177 14.2676 44.9141L18.2966 52.058C20.2153 54.8047 22.5266 57.2546 25.1568 59.3302L27.5633 62.0288H41.9997L42 62.0285Z" fill="#F6C499"/>
<g id="Vector_4" style="mix-blend-mode:multiply" opacity="0.44">
<path d="M32.2569 62.0286L22.5387 41.6739L31.6143 46.0898L25.7992 40.7285L23.0799 38.2215L22.7168 34.5194L21.8032 25.2047L18.6987 39.579H4.86402C3.8004 39.579 2.93799 40.4412 2.93799 41.5051V41.5371C2.93799 42.6008 3.80016 43.4632 4.86402 43.4632H11.7836C12.8128 43.4632 13.7622 44.0177 14.2678 44.9141L18.2967 52.058C20.2155 54.8047 22.5267 57.2547 25.1569 59.3302L27.5634 62.0288H32.2567L32.2569 62.0286Z" fill="#F0B18B"/>
</g>
</g>
<g id="Group_5">
<path id="Vector_5" d="M20.5752 39.5787L1.55027 39.5665C0.876806 39.566 0.331194 39.0199 0.331665 38.3464L0.355018 2.07285C0.35549 1.39939 0.90181 0.853777 1.57527 0.854248L20.6002 0.866515C21.2737 0.866986 21.8193 1.41331 21.8188 2.08677L21.7955 38.3604C21.795 39.0338 21.2487 39.5794 20.5752 39.579V39.5787Z" fill="#48404E"/>
<path id="Vector_6" d="M20.4281 38.531L1.69895 38.519C1.49821 38.519 1.33545 38.356 1.33545 38.155L1.35857 2.26615C1.35857 2.06541 1.52157 1.90265 1.72254 1.90265L20.4517 1.91468C20.6524 1.91468 20.8152 2.07768 20.8152 2.27866L20.7921 38.1675C20.7921 38.3683 20.6291 38.531 20.4281 38.531Z" fill="#4D3953"/>
<g id="Group_6" opacity="0.36">
<path id="Vector_7" d="M2.49768 3.15735L6.57291 3.15994" stroke="white" stroke-width="0.979504" stroke-miterlimit="10" stroke-linecap="square"/>
<path id="Vector_8" d="M6.56372 37.0685L15.5657 37.0744" stroke="white" stroke-width="0.979504" stroke-miterlimit="10" stroke-linecap="square"/>
<path id="Vector_9" d="M17.6023 3.1673L19.6399 3.16848" stroke="white" stroke-width="0.979504" stroke-miterlimit="10" stroke-linecap="square"/>
<path id="Vector_10" d="M16.127 3.16626L16.9389 3.16673" stroke="white" stroke-width="0.979504" stroke-miterlimit="10" stroke-linecap="square"/>
</g>
</g>
</g>
</g>
</g>
</svg>
