<svg xmlns="http://www.w3.org/2000/svg" width="300" height="30.442" viewBox="0 0 300 30.442">
  <g id="PLI_Logo" transform="translate(0)">
    <path id="Path_20396" data-name="Path 20396" d="M27.021,25.019a15.052,15.052,0,0,1-11.646,5.423A14.941,14.941,0,0,1,3.642,25.019Zm-4.844-4.888-2.225,4.178H17.821l3.954-4.932.4.754Zm6.13-10.8A13.936,13.936,0,0,0,15.421.934,14.234,14.234,0,0,0,1.067,14.754,13.55,13.55,0,0,0,3.023,22.31c1.289-3.466,3.865-10.355,3.865-10.355a6.95,6.95,0,0,1,1.2-.533l1.734-4.4,1.11-.576,1.378-2.933L15.286,4l6.133,3.421,6.887,1.912Zm1.6,1.42L22.041,8.621l-6.8-3.954L12.8,4.221V6.044l1.909,1.777L12.043,7.6s.087.134,2.311,2.488l10.087,1.691,1.778,1.153-4.622.223-1.91,6.977-6.221,4.178H9.376L10.753,21.6l-.224-.087-3.687,2.8H5.954l3.776-5.288c.18-1.51.092-.845.314-3.555l-.58-.8L7.954,20.532,4.8,24.309H4l1.867-2.622,2.623-8.045-.668.313-1.155,3.2-.8.445S4,22.13,3.022,24.355A15.459,15.459,0,0,1,0,14.754,15.239,15.239,0,0,1,15.421,0,15,15,0,0,1,29.906,10.754m-2.044,4.932-1.421,3.334-1.289,1.11-2.578,4.178H20.886l1.688-2.977,1.333-1.112,1.91-5.377Zm2.621.89a14.771,14.771,0,0,1-2.842,7.733H24.218l3.246-5.11.977-3.332,2.043.709Zm-5.153-1.91-1.865,3.51-1.026.177.268-2.044-.268-.4.268-2.309,2.623,1.067Z" transform="translate(0)" fill="#fff"/>
    <path id="Path_20397" data-name="Path 20397" d="M130.488,24.09h-1.145v8.184h1.145q3.277,0,3.277-4,0-4.179-3.277-4.179m-1.2,9.312v5.22a1.643,1.643,0,0,0,.347,1.231,2,2,0,0,0,1.3.313h.832v.988h-8.115v-.988h.311a2.3,2.3,0,0,0,1.3-.261,1.582,1.582,0,0,0,.416-1.284V25.737c0-.832-.167-1.342-.5-1.526a3.889,3.889,0,0,0-1.525-.173v-.989h6.832a9.008,9.008,0,0,1,4.872,1.145,4.469,4.469,0,0,1,2.115,4.058A4.394,4.394,0,0,1,135.4,32.2a8.883,8.883,0,0,1-4.907,1.2h-1.2Z" transform="translate(-86.013 -16.032)" fill="#fff"/>
    <path id="Path_20398" data-name="Path 20398" d="M174.243,43.085q.71-2.776,3.035-2.775a1.974,1.974,0,0,1,1.362.459,1.569,1.569,0,0,1,.511,1.224,1.787,1.787,0,0,1-.437,1.179,1.559,1.559,0,0,1-1.239.571,1.5,1.5,0,0,1-1.133-.434,1.135,1.135,0,0,1-.365-.935,1.19,1.19,0,0,1,.069-.261,7.2,7.2,0,0,0-1.091,3,16.335,16.335,0,0,0-.329,3.105v2.5a2.219,2.219,0,0,0,.19,1.145c.162.208.59.313,1.283.313h.417v.989h-6.832v-.989h.26a1.638,1.638,0,0,0,1.024-.252q.312-.251.312-1.207V45.286a14.623,14.623,0,0,0-.157-3.12.856.856,0,0,0-.867-.5h-.4v-.989h4.3l.088,2.412Z" transform="translate(-118.028 -28.039)" fill="#fff"/>
    <path id="Path_20399" data-name="Path 20399" d="M209.275,48.356a4.851,4.851,0,0,1-.469,2.377,1.761,1.761,0,0,1-1.559,1.076,1.194,1.194,0,0,1-.972-.512,2.374,2.374,0,0,1-.4-1.483,2.9,2.9,0,0,1,.85-2.322,5.823,5.823,0,0,1,2.549-.971v1.837Zm4.491,3.817q-1.075,0-1.076-1.492V44.661q0-4.349-4.924-4.351a6.283,6.283,0,0,0-3.347.831,2.5,2.5,0,0,0-1.352,2.187,1.84,1.84,0,0,0,.624,1.474,1.906,1.906,0,0,0,1.266.451,1.871,1.871,0,0,0,1.326-.493,1.486,1.486,0,0,0,.529-1.1q0-1.509-1.595-1.507a1.488,1.488,0,0,0-.484.077,2.429,2.429,0,0,1,.571-.424,3.344,3.344,0,0,1,1.63-.417q2.339,0,2.34,2.151v1.977a16.941,16.941,0,0,0-4.977,1.56,3.535,3.535,0,0,0-1.978,3.19,3.212,3.212,0,0,0,.749,2.116,3.548,3.548,0,0,0,2.885,1.163,3.862,3.862,0,0,0,2.085-.625,3.812,3.812,0,0,0,1.391-1.457v.6a8.351,8.351,0,0,1,0,1.1h4.682v-.989Z" transform="translate(-140.73 -28.039)" fill="#fff"/>
    <path id="Path_20400" data-name="Path 20400" d="M252.9,42.149a3.913,3.913,0,0,1,1.387-1.284,4.049,4.049,0,0,1,2.029-.554q3.676,0,3.676,4.057v5.74c0,.636,0,1.017.018,1.144q.069.921,1.144.92h.329v.989h-4.943V43.847q0-1.855-1.456-1.855a1.506,1.506,0,0,0-1.44.885,6.058,6.058,0,0,0-.364,2.515v4.733a5.282,5.282,0,0,0,.138,1.647c.15.267.487.4,1.006.4h.4v.989h-4.977V43.847q0-1.855-1.457-1.855a1.614,1.614,0,0,0-1.423.885,5.308,5.308,0,0,0-.381,2.462v4.734a4.406,4.406,0,0,0,.174,1.769,1.251,1.251,0,0,0,.954.33h.451v.989h-6.486v-.989h.451a.974.974,0,0,0,.763-.33,3.674,3.674,0,0,0,.243-1.821V43.76a4.019,4.019,0,0,0-.226-1.776,1.064,1.064,0,0,0-.918-.321h-.312v-.989h4.492l.051,1.563a3.32,3.32,0,0,1,1.335-1.353,4.141,4.141,0,0,1,2.116-.573,3.216,3.216,0,0,1,3.226,1.839" transform="translate(-168.111 -28.039)" fill="#fff"/>
    <path id="Path_20401" data-name="Path 20401" d="M312.08,44.454c-.023.3-.04.678-.051,1.128h4.126q0-4.337-1.976-4.335-1.837,0-2.1,3.207m.139,4.89q.536,2.931,2.6,2.931a3.163,3.163,0,0,0,2.479-1.215,3.544,3.544,0,0,0,.936-2.287H319.5a4.686,4.686,0,0,1-1.4,3.1,4.971,4.971,0,0,1-3.8,1.667,5.506,5.506,0,0,1-4.491-1.907,7.126,7.126,0,0,1-1.474-4.736,6.863,6.863,0,0,1,1.681-4.769,5.448,5.448,0,0,1,4.2-1.82,4.891,4.891,0,0,1,4.162,1.856,7.23,7.23,0,0,1,1.266,4.456h-7.611a14.833,14.833,0,0,0,.19,2.722" transform="translate(-214.473 -28.039)" fill="#fff"/>
    <path id="Path_20402" data-name="Path 20402" d="M350.775,43.085q.712-2.776,3.035-2.775a1.972,1.972,0,0,1,1.362.459,1.565,1.565,0,0,1,.511,1.224,1.791,1.791,0,0,1-.436,1.179,1.56,1.56,0,0,1-1.239.571,1.5,1.5,0,0,1-1.133-.434,1.13,1.13,0,0,1-.365-.935,1.193,1.193,0,0,1,.069-.261,7.2,7.2,0,0,0-1.093,3,16.42,16.42,0,0,0-.329,3.105v2.5a2.206,2.206,0,0,0,.191,1.145c.161.208.589.313,1.283.313h.417v.989h-6.833v-.989h.261a1.635,1.635,0,0,0,1.023-.252q.313-.251.313-1.207V45.286a14.7,14.7,0,0,0-.157-3.12.857.857,0,0,0-.867-.5h-.4v-.989h4.3l.087,2.412Z" transform="translate(-240.821 -28.039)" fill="#fff"/>
    <path id="Path_20403" data-name="Path 20403" d="M379.854,25.381a2.043,2.043,0,0,1,2.046-2.047,2,2,0,0,1,1.457.6,1.951,1.951,0,0,1,.608,1.448,2.011,2.011,0,0,1-.608,1.465,1.97,1.97,0,0,1-1.457.617,1.947,1.947,0,0,1-1.448-.617,2.029,2.029,0,0,1-.6-1.465m-.884,14.983h.33q.745,0,.935-.47a6.345,6.345,0,0,0,.122-1.648V31.693q0-1.336-.27-1.57a1.165,1.165,0,0,0-.788-.233h-.33V28.9h4.787v9.346a4.515,4.515,0,0,0,.19,1.8,1.118,1.118,0,0,0,.92.313h.294v.989H378.97v-.989Z" transform="translate(-263.605 -16.231)" fill="#fff"/>
    <path id="Path_20404" data-name="Path 20404" d="M408.333,42.026a1.888,1.888,0,0,0-1.56-.641q-3.07,0-3.069,5.514A13.976,13.976,0,0,0,404,50.282q.573,2.028,2.306,2.028a2.573,2.573,0,0,0,2.237-1.233,4.13,4.13,0,0,0,.693-2.3h1.285a4.883,4.883,0,0,1-1.11,3.1,4.4,4.4,0,0,1-3.659,1.666,5.283,5.283,0,0,1-4.4-1.907,7.471,7.471,0,0,1-1.352-4.735,6.859,6.859,0,0,1,1.647-4.734,5.574,5.574,0,0,1,4.387-1.856,4.483,4.483,0,0,1,3.156.971,2.535,2.535,0,0,1,.851,1.943,1.868,1.868,0,0,1-.607,1.361,1.987,1.987,0,0,1-1.44.6,2.248,2.248,0,0,1-1.439-.451,1.442,1.442,0,0,1-.573-1.2,1.636,1.636,0,0,1,.443-1.154,1.886,1.886,0,0,1,1.915-.355" transform="translate(-278.229 -28.039)" fill="#fff"/>
    <path id="Path_20405" data-name="Path 20405" d="M442.6,48.356a4.84,4.84,0,0,1-.469,2.377,1.76,1.76,0,0,1-1.559,1.076,1.2,1.2,0,0,1-.972-.512,2.374,2.374,0,0,1-.4-1.483,2.9,2.9,0,0,1,.85-2.322,5.823,5.823,0,0,1,2.549-.971v1.837Zm4.492,3.817q-1.076,0-1.076-1.492V44.661q0-4.349-4.925-4.351a6.28,6.28,0,0,0-3.346.831,2.5,2.5,0,0,0-1.353,2.187,1.84,1.84,0,0,0,.624,1.474,1.908,1.908,0,0,0,1.267.451,1.871,1.871,0,0,0,1.326-.493,1.484,1.484,0,0,0,.528-1.1q0-1.509-1.594-1.507a1.479,1.479,0,0,0-.484.077,2.422,2.422,0,0,1,.57-.424,3.343,3.343,0,0,1,1.63-.417q2.34,0,2.34,2.151v1.977a16.952,16.952,0,0,0-4.977,1.56,3.536,3.536,0,0,0-1.977,3.19,3.211,3.211,0,0,0,.748,2.116,3.548,3.548,0,0,0,2.885,1.163,3.865,3.865,0,0,0,2.086-.625,3.8,3.8,0,0,0,1.39-1.457v.6a8.01,8.01,0,0,1,0,1.1h4.682v-.989h-.346Z" transform="translate(-303.029 -28.039)" fill="#fff"/>
    <g id="Group_14296" data-name="Group 14296" transform="translate(205.398 15.979)">
      <path id="Path_20406" data-name="Path 20406" d="M674.728,61.951V52.9h1.73v7.6h3.936v1.454Z" transform="translate(-674.728 -52.776)" fill="#fff"/>
      <path id="Path_20407" data-name="Path 20407" d="M696.909,61.951V52.9h1.729v9.05Z" transform="translate(-690.157 -52.776)" fill="#fff"/>
      <path id="Path_20408" data-name="Path 20408" d="M708.33,61.951V52.9H714.1v1.454H710.06v2.156h3.021v1.454H710.06v3.986Z" transform="translate(-698.101 -52.776)" fill="#fff"/>
      <path id="Path_20409" data-name="Path 20409" d="M730.42,61.951V52.9h5.991v1.454h-4.262v2.156h3.1v1.454h-3.1V60.5h4.4v1.454Z" transform="translate(-713.466 -52.776)" fill="#fff"/>
      <path id="Path_20410" data-name="Path 20410" d="M768.671,61.951V52.9H770.4v9.05Z" transform="translate(-740.073 -52.776)" fill="#fff"/>
      <path id="Path_20411" data-name="Path 20411" d="M780.155,61.951V52.9h1.8l3.559,6.167h.025V52.9h1.63v9.05h-1.667l-3.7-6.443h-.025v6.443Z" transform="translate(-748.061 -52.776)" fill="#fff"/>
      <path id="Path_20412" data-name="Path 20412" d="M811.557,55.022a1.985,1.985,0,0,0-.6-.852,1.559,1.559,0,0,0-1.015-.326,1.663,1.663,0,0,0-.927.238.846.846,0,0,0-.363.765.775.775,0,0,0,.344.645,4.126,4.126,0,0,0,.865.476q.52.219,1.122.445a5.988,5.988,0,0,1,1.122.558,3.058,3.058,0,0,1,.865.821,2.06,2.06,0,0,1,.345,1.216,2.569,2.569,0,0,1-.827,2.093,3.566,3.566,0,0,1-2.344.689,3.9,3.9,0,0,1-1.078-.151,3.952,3.952,0,0,1-.978-.426,3.319,3.319,0,0,1-.8-.677,3.017,3.017,0,0,1-.533-.89l1.429-.626a3.228,3.228,0,0,0,.758,1.028,1.775,1.775,0,0,0,1.21.389,2.687,2.687,0,0,0,.6-.063,1.356,1.356,0,0,0,.482-.207,1.016,1.016,0,0,0,.326-.376,1.207,1.207,0,0,0,.119-.558.926.926,0,0,0-.344-.733,3.7,3.7,0,0,0-.865-.533q-.52-.238-1.122-.463a6.488,6.488,0,0,1-1.122-.545,3.1,3.1,0,0,1-.865-.777,1.871,1.871,0,0,1-.345-1.159,2.381,2.381,0,0,1,.238-1.078,2.345,2.345,0,0,1,.639-.8,2.9,2.9,0,0,1,.928-.489,3.817,3.817,0,0,1,3.058.357,3.089,3.089,0,0,1,1.254,1.516Z" transform="translate(-766.565 -52.49)" fill="#fff"/>
      <path id="Path_20413" data-name="Path 20413" d="M837.412,52.9h1.73v5.666a4.3,4.3,0,0,1-.282,1.661,2.783,2.783,0,0,1-1.874,1.673,5.015,5.015,0,0,1-2.632,0,2.782,2.782,0,0,1-1.874-1.673,4.3,4.3,0,0,1-.282-1.661V52.9h1.729v5.741a2.173,2.173,0,0,0,.433,1.541,2.175,2.175,0,0,0,2.62,0,2.173,2.173,0,0,0,.432-1.541V52.9Z" transform="translate(-784.261 -52.776)" fill="#fff"/>
      <path id="Path_20414" data-name="Path 20414" d="M860.381,61.951V52.9h3.61a3.753,3.753,0,0,1,1.316.207,2.246,2.246,0,0,1,1.41,1.422,3.2,3.2,0,0,1,.169,1.053,2.5,2.5,0,0,1-.407,1.467,2.152,2.152,0,0,1-1.247.865l1.993,4.036h-1.918l-1.7-3.685h-1.492v3.685h-1.73Zm1.73-5.089h1.278a2.221,2.221,0,0,0,1.391-.319,1.41,1.41,0,0,0,0-1.918,1.642,1.642,0,0,0-1.09-.319h-1.579v2.557Z" transform="translate(-803.865 -52.776)" fill="#fff"/>
      <path id="Path_20415" data-name="Path 20415" d="M887.676,52.86h2.156l2.57,9.062h-1.717l-.5-1.956h-2.858l-.539,1.956h-1.717Zm.025,5.678h2.106L888.792,54.6h-.025Z" transform="translate(-821.038 -52.748)" fill="#fff"/>
      <path id="Path_20416" data-name="Path 20416" d="M912.144,61.951V52.9h1.8l3.559,6.167h.025V52.9h1.63v9.05H917.5l-3.7-6.443h-.025v6.443Z" transform="translate(-839.87 -52.776)" fill="#fff"/>
      <path id="Path_20417" data-name="Path 20417" d="M944.337,55.247a2.107,2.107,0,0,0-.6-.94,1.514,1.514,0,0,0-1.047-.363,1.53,1.53,0,0,0-1.36.8,4.623,4.623,0,0,0-.5,2.4q-.038,3.2,1.905,3.2a2.139,2.139,0,0,0,.533-.063,1.315,1.315,0,0,0,.451-.213,1.96,1.96,0,0,0,.4-.407,3.7,3.7,0,0,0,.382-.658l1.6.426a3.416,3.416,0,0,1-1.26,1.774,3.616,3.616,0,0,1-2.112.6,3.213,3.213,0,0,1-2.688-1.21,5.471,5.471,0,0,1-.946-3.441,5.474,5.474,0,0,1,.946-3.441,3.214,3.214,0,0,1,2.688-1.209,3.331,3.331,0,0,1,2.068.583,3.219,3.219,0,0,1,1.091,1.8l-1.567.376Z" transform="translate(-858.628 -52.49)" fill="#fff"/>
      <path id="Path_20418" data-name="Path 20418" d="M965.357,61.951V52.9h5.991v1.454h-4.262v2.156h3.1v1.454h-3.1V60.5h4.4v1.454Z" transform="translate(-876.885 -52.776)" fill="#fff"/>
    </g>
    <path id="Path_20419" data-name="Path 20419" d="M573.391,61.951V52.9h.773v9.05Z" transform="translate(-398.841 -36.797)" fill="#fff"/>
  </g>
</svg>
