<svg width="52" height="54" viewBox="0 0 52 54" fill="none" xmlns="http://www.w3.org/2000/svg">
<path id="Vector" d="M0.00561653 37.0389C-0.0318899 36.1298 0.124977 35.3068 0.281843 34.462C0.331852 34.1927 0.392475 33.9252 0.463714 33.6607C0.495795 33.5416 0.52764 33.4246 0.559485 33.3071C0.76518 32.5504 1.05297 31.8201 1.41789 31.132C3.54113 27.1851 7.6456 25.3452 11.3962 22.8683C16.633 19.4008 17.7888 13.5035 18.9447 7.72427C19.8883 2.95931 25.0778 1.37886 29.2203 0.840795C30.0858 0.754931 30.9569 0.747618 31.8252 0.818385C32.6935 0.889152 33.5588 1.038 34.4124 1.26469C35.1645 1.40528 35.8495 1.63999 36.4781 1.95089C39.6211 3.50469 41.3542 6.95787 43.0054 10.0834C44.1377 12.2536 46.5438 13.1971 48.3601 14.8719C49.628 16.0318 50.6011 17.47 51.2111 19.0401C51.5161 19.8251 51.7303 20.643 51.8454 21.4749C52.0872 23.4347 52.0164 25.4634 50.8369 27.2325C50.3357 27.9756 49.7401 28.5445 49.0803 28.9937C48.4205 29.443 47.6965 29.7723 46.9344 30.038C44.7746 30.7944 42.4629 30.936 40.387 32.139C38.0282 33.5072 36.4713 35.7009 35.4805 38.1306C34.0652 41.5274 33.1688 45.0186 30.8571 48.0615C28.7105 50.9394 25.5968 52.5434 22.2717 53.323C21.544 53.5056 20.8316 53.6408 20.135 53.7311C7.59724 55.3571 0.229004 42.4695 0.00561653 37.0389Z" fill="#E8E3F3"/>
</svg>
