<svg width="24" height="25" viewBox="0 0 24 25" fill="none" xmlns="http://www.w3.org/2000/svg">
<path d="M17.9997 10.1004C18.7307 10.1004 19.4444 9.87791 20.0458 9.46247C20.6473 9.04703 21.108 8.45834 21.3668 7.77468C21.6255 7.09102 21.67 6.3448 21.4943 5.63523C21.3187 4.92567 20.9311 4.2864 20.3833 3.80243C19.8355 3.31846 19.1533 3.01273 18.4275 2.92589C17.7017 2.83905 16.9667 2.97521 16.3201 3.31628C15.6736 3.65735 15.1462 4.18715 14.8081 4.83524C14.47 5.48333 14.3372 6.21899 14.4273 6.94439L8.49932 9.90839C7.9908 9.41802 7.34924 9.0881 6.65455 8.95973C5.95987 8.83136 5.24277 8.91022 4.59258 9.18648C3.94239 9.46274 3.38786 9.92419 2.99805 10.5134C2.60824 11.1025 2.40039 11.7933 2.40039 12.4998C2.40039 13.2062 2.60824 13.8971 2.99805 14.4862C3.38786 15.0754 3.94239 15.5369 4.59258 15.8131C5.24277 16.0894 5.95987 16.1682 6.65455 16.0399C7.34924 15.9115 7.9908 15.5816 8.49932 15.0912L14.4273 18.0552C14.3223 18.8979 14.5186 19.7506 14.9815 20.4625C15.4443 21.1745 16.144 21.6999 16.9568 21.9459C17.7695 22.192 18.6431 22.1427 19.4231 21.807C20.2031 21.4712 20.8393 20.8705 21.2193 20.111C21.5992 19.3516 21.6985 18.4822 21.4994 17.6567C21.3004 16.8311 20.816 16.1025 20.1317 15.5996C19.4475 15.0966 18.6074 14.8518 17.7601 14.9083C16.9128 14.9648 16.1127 15.3191 15.5013 15.9084L9.57332 12.9444C9.60964 12.6495 9.60964 12.3513 9.57332 12.0564L15.5013 9.09239C16.1469 9.71639 17.0277 10.1004 17.9997 10.1004Z" fill="#1D428A"/>
</svg>
