<svg width="420" height="301" viewBox="0 0 420 301" fill="none" xmlns="http://www.w3.org/2000/svg">
<path opacity="0.5" d="M306.789 264.171C280.225 278.048 245.377 285 210.501 285C175.625 285 140.776 278.048 114.212 264.171L113.981 264.614L114.212 264.171C87.6363 250.288 74.5001 232.173 74.5 214.191C74.4999 196.208 87.636 178.094 114.211 164.21C140.775 150.334 175.624 143.382 210.5 143.382C245.376 143.382 280.225 150.334 306.789 164.211C333.364 178.094 346.5 196.209 346.5 214.191C346.5 232.173 333.364 250.288 306.789 264.171Z" stroke="#4AC6BB"/>
<path opacity="0.3" d="M325.173 267.161C293.533 283.712 252.03 292 210.501 292C168.971 292 127.468 283.711 95.8276 267.161C64.1752 250.605 48.5001 228.986 48.5 207.5C48.4999 186.013 64.1748 164.395 95.8269 147.838C127.467 131.288 168.97 123 210.5 123C252.03 123 293.533 131.289 325.173 147.839C356.825 164.395 372.5 186.014 372.5 207.5C372.5 228.986 356.825 250.605 325.173 267.161Z" stroke="#4AC6BB"/>
<path opacity="0.2" d="M351.897 269.303C312.739 289.759 261.384 300 210.001 300C158.618 300 107.262 289.758 68.104 269.303C28.9336 248.841 9.50011 222.104 9.5 195.5C9.49989 168.895 28.9332 142.158 68.103 121.696C107.261 101.241 158.617 90.9999 210 91C261.383 91.0001 312.739 101.241 351.897 121.697C391.067 142.159 410.5 168.896 410.5 195.5C410.5 222.104 391.067 248.841 351.897 269.303Z" stroke="#4AC6BB"/>
<path d="M230.52 262.869C244.508 262.869 255.848 256.322 255.848 248.245C255.848 240.169 244.508 233.622 230.52 233.622C216.531 233.622 205.191 240.169 205.191 248.245C205.191 256.322 216.531 262.869 230.52 262.869Z" fill="#F1EDF8"/>
<path d="M276.799 237.628C289.171 237.628 299.201 231.837 299.201 224.694C299.201 217.551 289.171 211.761 276.799 211.761C264.426 211.761 254.396 217.551 254.396 224.694C254.396 231.837 264.426 237.628 276.799 237.628Z" fill="#F1EDF8"/>
<path d="M176.148 206.633C176.148 208.847 177.704 211.538 179.622 212.645C180.365 213.077 181.053 213.201 181.617 213.068C181.506 213.188 181.378 213.286 181.241 213.363L182.074 212.889C182.092 212.876 182.104 212.867 182.121 212.859C182.164 212.834 182.202 212.803 182.245 212.774C182.301 212.735 182.352 212.688 182.399 212.641C182.428 212.611 182.458 212.581 182.489 212.547C182.497 212.542 182.502 212.538 182.506 212.53C182.531 212.5 182.562 212.466 182.587 212.427C182.702 212.278 182.796 212.107 182.873 211.91C182.895 211.854 182.916 211.799 182.933 211.743C182.946 211.714 182.954 211.688 182.959 211.658C182.976 211.607 182.988 211.555 182.997 211.504C183.061 211.244 183.091 210.957 183.091 210.642C183.091 208.428 181.536 205.737 179.622 204.63C179.062 204.305 178.537 204.155 178.067 204.155H178.054C177.981 204.155 177.908 204.16 177.84 204.168L177.639 204.202C177.597 204.211 177.558 204.223 177.52 204.236L177.447 204.257C177.4 204.275 177.353 204.292 177.306 204.318L177.276 204.331C177.234 204.352 177.187 204.373 177.144 204.399L176.417 204.813C176.532 204.753 176.661 204.706 176.793 204.681C176.388 205.104 176.148 205.766 176.148 206.633Z" fill="#4A5F98"/>
<path d="M104.046 246.593L108.942 255.104L109.771 254.625L181.241 213.362C181.378 213.286 181.506 213.187 181.617 213.068C182.019 212.644 182.258 211.982 182.258 211.115C182.258 208.902 180.703 206.21 178.785 205.103C178.229 204.779 177.7 204.629 177.234 204.629C177.08 204.629 176.935 204.646 176.794 204.68C176.662 204.706 176.533 204.753 176.418 204.813C176.396 204.822 176.375 204.834 176.358 204.843L176.337 204.856C176.333 204.86 176.333 204.86 176.328 204.86L104.046 246.593Z" fill="#F2F2F3"/>
<path d="M106.5 246.835C104.583 245.729 103.029 246.626 103.029 248.839C103.029 251.053 104.583 253.745 106.5 254.852C108.417 255.958 109.971 255.061 109.971 252.847C109.971 250.634 108.417 247.942 106.5 246.835Z" fill="#4A5F98"/>
<path d="M99.0379 251.995C99.0633 251.96 99.0937 251.926 99.1234 251.896L103.554 247.025C103.554 247.021 103.558 247.016 103.563 247.012L103.597 246.975C103.623 246.944 103.651 246.916 103.678 246.887L103.725 246.836L103.727 246.839C104.36 246.232 105.365 246.18 106.5 246.835C108.417 247.942 109.971 250.634 109.971 252.847C109.971 254.132 109.446 254.969 108.632 255.233L108.634 255.236L108.581 255.247C108.5 255.27 108.416 255.288 108.329 255.301L108.275 255.313C108.271 255.313 108.262 255.313 108.258 255.317L101.836 256.719C101.516 256.791 101.131 256.714 100.717 256.475C99.6183 255.843 98.7295 254.305 98.7295 253.04C98.7301 252.588 98.841 252.238 99.0379 251.995Z" fill="#E0E0E0"/>
<path d="M155.78 220.383C155.785 220.375 155.793 220.37 155.802 220.37L155.917 220.302C156.131 220.208 156.413 220.238 156.725 220.417C157.404 220.811 157.96 221.772 157.96 222.558C157.96 222.904 157.853 223.161 157.674 223.301C157.674 223.306 157.669 223.306 157.669 223.306L157.52 223.391L104.764 253.848L101.295 251.844L155.78 220.383Z" fill="#455A64"/>
<path d="M109.662 251.02L104.763 253.848L101.294 251.844L107.926 248.015C108.695 248.86 109.314 249.932 109.662 251.02Z" fill="#37474F"/>
<path d="M97.2923 254.309L97.2917 254.309L97.288 254.305L101.307 249.887C101.341 249.845 101.376 249.802 101.414 249.767C101.86 249.321 102.579 249.283 103.395 249.752C104.748 250.532 105.848 252.435 105.848 254.001C105.848 254.904 105.483 255.497 104.913 255.689C104.898 255.693 104.886 255.697 104.875 255.701L104.713 255.736L98.8222 257.02L98.8197 257.018C98.6395 257.057 98.4215 257.017 98.1861 256.881C97.5692 256.525 97.0693 255.659 97.0693 254.946C97.07 254.658 97.1542 254.444 97.2923 254.309Z" fill="#4A5F98"/>
<path opacity="0.1" d="M97.2923 254.309L97.2917 254.309L97.288 254.305L101.307 249.887C101.341 249.845 101.376 249.802 101.414 249.767C101.86 249.321 102.579 249.283 103.395 249.752C104.748 250.532 105.848 252.435 105.848 254.001C105.848 254.904 105.483 255.497 104.913 255.689C104.898 255.693 104.886 255.697 104.875 255.701L104.713 255.736L98.8222 257.02L98.8197 257.018C98.6395 257.057 98.4215 257.017 98.1861 256.881C97.5692 256.525 97.0693 255.659 97.0693 254.946C97.07 254.658 97.1542 254.444 97.2923 254.309Z" fill="black"/>
<path d="M97.0693 254.947C97.0693 255.659 97.5692 256.524 98.1886 256.882C98.4233 257.016 98.6426 257.059 98.8191 257.016L98.8228 257.02L101.799 256.37C102.268 256.271 102.576 255.828 102.576 255.12C102.576 253.982 101.776 252.594 100.791 252.025C100.207 251.686 99.6875 251.713 99.3605 252.028L99.2799 252.117L97.288 254.305L97.2917 254.309C97.1536 254.443 97.0693 254.659 97.0693 254.947Z" fill="#4A5F98"/>
<path opacity="0.1" d="M98.1871 254.302C97.5702 253.946 97.0703 254.234 97.0703 254.947C97.0703 255.659 97.5702 256.525 98.1871 256.881C98.804 257.237 99.3038 256.948 99.3038 256.236C99.3038 255.524 98.8034 254.658 98.1871 254.302Z" fill="black"/>
<path d="M168.919 212.795C169.142 212.662 169.449 212.684 169.791 212.88C170.47 213.274 171.021 214.226 171.017 215.008C171.017 215.406 170.88 215.683 170.654 215.807L157.674 223.301C157.853 223.16 157.96 222.904 157.96 222.558C157.96 221.772 157.404 220.81 156.725 220.417C156.413 220.237 156.131 220.208 155.917 220.302L168.919 212.795Z" fill="#FAFAFA"/>
<path d="M168.56 213.589C168.56 214.371 169.111 215.324 169.79 215.717C170.128 215.909 170.431 215.931 170.649 215.803C170.875 215.679 171.017 215.405 171.017 215.008C171.021 214.226 170.47 213.273 169.79 212.88C169.448 212.684 169.141 212.662 168.919 212.795C168.696 212.923 168.56 213.201 168.56 213.589Z" fill="#F5F5F5"/>
<path d="M171.307 208.334L171.306 208.331L171.345 208.308C171.363 208.297 171.381 208.287 171.4 208.277L176.521 205.323C176.56 205.298 176.6 205.275 176.641 205.254L176.67 205.238L176.671 205.241C177.228 204.968 177.97 205.031 178.787 205.503C180.513 206.499 181.911 208.922 181.911 210.914C181.911 211.916 181.558 212.618 180.987 212.942L175.803 215.934C175.794 215.939 175.784 215.944 175.775 215.95L175.745 215.968L175.744 215.965C175.182 216.264 174.421 216.209 173.581 215.724C171.856 214.728 170.457 212.305 170.457 210.313C170.456 209.355 170.781 208.675 171.307 208.334Z" fill="#4A5F98"/>
<path opacity="0.05" d="M171.307 208.334L171.306 208.331L171.345 208.308C171.363 208.297 171.381 208.287 171.4 208.277L176.521 205.323C176.56 205.298 176.6 205.275 176.641 205.254L176.67 205.238L176.671 205.241C177.228 204.968 177.97 205.031 178.787 205.503C180.513 206.499 181.911 208.922 181.911 210.914C181.911 211.916 181.558 212.618 180.987 212.942L175.803 215.934C175.794 215.939 175.784 215.944 175.775 215.95L175.745 215.968L175.744 215.965C175.182 216.264 174.421 216.209 173.581 215.724C171.856 214.728 170.457 212.305 170.457 210.313C170.456 209.355 170.781 208.675 171.307 208.334Z" fill="black"/>
<path opacity="0.1" d="M173.58 208.509C171.855 207.513 170.456 208.32 170.456 210.312C170.456 212.305 171.855 214.727 173.58 215.723C175.306 216.719 176.704 215.912 176.704 213.92C176.704 211.928 175.305 209.505 173.58 208.509Z" fill="black"/>
<path d="M95.6513 256.169L97.7702 254.897L97.7714 254.899C97.8755 254.832 98.0223 254.836 98.1864 254.931C98.5023 255.113 98.7588 255.557 98.7588 255.922C98.7588 256.105 98.6943 256.233 98.5909 256.293L96.48 257.57C96.3636 257.634 96.2298 257.671 96.0873 257.671C95.6376 257.671 95.2734 257.307 95.2734 256.857C95.2734 256.567 95.424 256.313 95.6513 256.169Z" fill="#455A64"/>
<path d="M95.528 256.266L95.5323 256.262C95.5664 256.232 95.6067 256.198 95.6451 256.172C95.6494 256.172 95.6494 256.168 95.6537 256.168C95.7522 256.13 95.8811 256.151 96.0217 256.232C96.3376 256.416 96.594 256.856 96.594 257.223C96.594 257.402 96.5339 257.526 96.4317 257.586C96.4187 257.594 96.402 257.603 96.389 257.607C96.376 257.616 96.3468 257.627 96.3468 257.627C96.2657 257.661 96.179 257.672 96.0855 257.672C95.637 257.672 95.2734 257.305 95.2734 256.856C95.2734 256.621 95.3701 256.411 95.528 256.266Z" fill="#263238"/>
<path d="M94.6403 237.829L92.4786 236.581C91.7973 236.188 91.2454 235.231 91.2454 234.445L91.2441 74.2939C91.2441 73.5073 91.7966 72.5509 92.4774 72.1576L191.832 14.795C192.513 14.4017 193.618 14.4017 194.299 14.795L196.461 16.0431C197.143 16.4364 197.695 17.3927 197.695 18.1794V178.33C197.695 179.117 197.143 180.073 196.461 180.467L97.1073 237.829C96.426 238.222 95.3216 238.222 94.6403 237.829Z" fill="#4A5F98"/>
<path opacity="0.4" d="M197.681 17.9793C197.595 17.3413 197.077 17.1078 196.462 17.4664L97.1068 74.8297C96.7649 75.0235 96.4633 75.3593 96.2353 75.747L91.6035 73.0749C91.8315 72.6878 92.1331 72.3571 92.475 72.1576L191.83 14.795C192.514 14.4017 193.619 14.4017 194.297 14.795L196.462 16.0424C197.082 16.4017 197.601 17.2391 197.681 17.9793Z" fill="white"/>
<path opacity="0.15" d="M96.8899 237.928C96.867 237.945 96.8385 237.951 96.8156 237.956C96.7759 237.974 96.7357 237.991 96.6905 238.002C96.6731 238.008 96.6564 238.013 96.639 238.02C96.5653 238.043 96.491 238.059 96.4111 238.077H96.3826C95.8927 238.168 95.3513 238.128 94.9128 237.957C94.8162 237.923 94.7251 237.877 94.6396 237.832L92.4749 236.584C91.7966 236.186 91.2441 235.234 91.2441 234.448V74.2942C91.2441 73.9008 91.381 73.4623 91.6034 73.0752L96.2352 75.7473C96.0073 76.1344 95.8704 76.5735 95.8704 76.9662V237.119C95.8704 237.398 95.9385 237.62 96.0581 237.769C96.2117 237.956 96.4458 238.036 96.7189 237.979C96.7759 237.968 96.8329 237.951 96.8899 237.928Z" fill="black"/>
<path d="M166.661 44.2826C166.604 44.2485 166.541 44.2145 166.479 44.1742L164.428 42.9949C163.949 42.6932 163.197 42.4021 162.035 42.1463C161.682 42.0664 161.363 41.9754 161.084 41.8843C160.736 41.7648 160.44 41.6452 160.178 41.5139L160.332 41.3256V41.32L158.014 39.9809V39.9865C157.831 39.8837 157.638 39.7988 157.404 39.7412C156.533 39.5306 155.228 40.0373 153.923 39.8892C153.097 39.7982 152.271 39.4389 151.559 38.482C150.767 37.4166 150.289 35.5479 149.588 34.0044L150.198 33.1044C150.135 33.0648 150.072 33.0301 150.004 32.996L147.878 31.7653C147.537 31.5658 147.144 31.4463 146.694 31.4463C146.072 31.4463 145.343 31.6631 144.466 32.1697C139.379 35.1094 139.208 42.0881 137.374 46.6741C135.539 51.2718 132.947 52.7014 131.534 54.6785C130.11 56.6494 130.025 58.1136 126.897 62.4265C123.769 66.7393 123.644 67.7929 123.644 68.6074V75.0336L125.956 76.3665L167.596 52.3198L166.661 44.2826ZM128.48 69.0472C127.938 69.355 127.494 68.9388 127.494 68.1014C127.494 67.2695 127.938 66.3293 128.48 66.0165C129.021 65.7031 129.46 66.1304 129.46 66.9679C129.46 67.7997 129.021 68.7338 128.48 69.0472ZM146.773 51.0166C145.406 51.8082 144.209 51.3585 143.566 50.0368C141.953 50.3502 140.751 48.7893 140.751 46.1117C140.751 42.9552 142.415 39.4402 144.466 38.2553C145.833 37.4637 147.029 37.9134 147.667 39.2352C149.285 38.9162 150.482 40.4715 150.482 43.1603C150.481 46.3167 148.824 49.8311 146.773 51.0166ZM160.599 50.4982C160.058 50.8116 159.619 50.3898 159.619 49.558C159.619 48.7205 160.058 47.7921 160.599 47.4787C161.146 47.1652 161.584 47.5871 161.584 48.4245C161.585 49.2563 161.146 50.1848 160.599 50.4982Z" fill="#455A64"/>
<path opacity="0.5" d="M128.269 70.1967L123.791 67.6113C123.66 68.0412 123.644 68.3397 123.644 68.6086V75.0348L125.956 76.3677L128.269 75.0323V70.1967Z" fill="#37474F"/>
<path opacity="0.5" d="M132.897 62.1808L135.211 56.8361L131.534 54.6787L131.533 54.6793C130.454 56.1733 130.141 57.3793 128.691 59.7522L132.897 62.1808Z" fill="#37474F"/>
<path opacity="0.5" d="M142.154 51.4923L142.454 49.9351C141.431 49.5065 140.751 48.1252 140.751 46.1116C140.751 43.4315 141.952 40.498 143.57 38.9471L140.363 37.0957C138.995 40.2094 138.49 43.8836 137.373 46.6752C137.136 47.268 136.887 47.8069 136.629 48.3024L142.154 51.4923Z" fill="#37474F"/>
<path d="M166.661 44.2822C166.604 44.2481 166.541 44.214 166.479 44.1738C166 43.9285 165.317 43.695 164.342 43.4788C162.496 43.0626 161.71 42.4134 161.084 41.8839C160.827 41.6677 160.599 41.4738 160.332 41.3258C160.15 41.2174 159.95 41.1319 159.711 41.0749C158.309 40.7386 155.757 42.2654 153.923 39.89C153.905 39.8671 153.883 39.8386 153.866 39.8163C152.584 38.0901 152.117 34.2387 150.197 33.1052C150.135 33.0656 150.072 33.0309 150.003 32.9968C149.211 32.6264 148.18 32.6952 146.773 33.5041C141.686 36.4437 141.515 43.4224 139.681 48.0084C137.846 52.6056 135.254 54.0357 133.841 56.0128C132.417 57.9838 132.337 59.448 129.204 63.7608C126.076 68.0737 125.956 69.1273 125.956 69.9418V76.368L167.595 52.3213V45.9C167.595 45.3704 167.543 44.8062 166.661 44.2822ZM130.787 70.3797C130.245 70.6931 129.807 70.2713 129.807 69.4339C129.807 68.602 130.245 67.6618 130.787 67.349C131.334 67.0356 131.767 67.4629 131.767 68.3004C131.767 69.1322 131.334 70.0669 130.787 70.3797ZM146.773 51.0162C145.406 51.8078 144.209 51.3581 143.565 50.0363C143.241 49.3754 143.058 48.4984 143.058 47.4442C143.058 44.2883 144.722 40.7733 146.773 39.5884C147.08 39.4119 147.382 39.2923 147.667 39.2353C149.285 38.9163 150.481 40.4716 150.481 43.1604C150.481 46.3162 148.823 49.8307 146.773 51.0162ZM162.912 51.8307C162.365 52.1441 161.927 51.7223 161.927 50.8905C161.927 50.053 162.365 49.1246 162.912 48.8112C163.453 48.4977 163.892 48.9195 163.892 49.757C163.892 50.5888 163.453 51.5173 162.912 51.8307Z" fill="#37474F"/>
<path d="M150.482 43.1601C150.482 46.3166 148.824 49.831 146.773 51.0165C145.406 51.8081 144.209 51.3584 143.565 50.0366C143.856 49.9797 144.152 49.8657 144.465 49.6836C146.516 48.4987 148.174 44.9836 148.174 41.8278C148.174 40.7736 147.992 39.8966 147.667 39.2357C149.286 38.9161 150.482 40.4714 150.482 43.1601Z" fill="#263238"/>
<path d="M130.789 70.3779C130.246 70.6913 129.804 70.2701 129.804 69.4358C129.804 68.6009 130.246 67.6643 130.789 67.3515C131.331 67.0388 131.769 67.4661 131.769 68.3011C131.77 69.136 131.331 70.0651 130.789 70.3779Z" fill="#263238"/>
<path d="M162.91 51.8349C162.367 52.1483 161.925 51.7272 161.925 50.8928C161.925 50.0579 162.367 49.1214 162.91 48.8086C163.452 48.4958 163.89 48.9232 163.89 49.7581C163.89 50.5931 163.452 51.5221 162.91 51.8349Z" fill="#263238"/>
<path d="M103.553 89.8104L190.01 39.8948C190.419 39.6588 191.081 39.6588 191.49 39.8948L192.324 40.376C192.733 40.612 193.064 41.1856 193.064 41.6576V173.555C193.064 174.027 192.733 174.601 192.324 174.837L105.869 224.753C105.46 224.989 104.797 224.989 104.388 224.753L103.553 224.271C103.144 224.035 102.812 223.461 102.812 222.989V91.0926C102.812 90.6206 103.144 90.0464 103.553 89.8104Z" fill="#F5F5F5"/>
<path d="M193.038 41.4341C192.947 41.1324 192.662 41.0352 192.326 41.229L105.869 91.1459C105.664 91.2655 105.476 91.4649 105.345 91.6984L103.032 90.3655C103.164 90.132 103.351 89.927 103.556 89.813L190.013 39.8961C190.417 39.657 191.084 39.657 191.488 39.8961L192.326 40.3749C192.673 40.5799 192.964 41.0185 193.038 41.4341Z" fill="#FAFAFA"/>
<path d="M105.693 224.831C105.607 224.865 105.516 224.888 105.419 224.905C105.374 224.91 105.323 224.916 105.277 224.922C105.129 224.933 104.975 224.928 104.827 224.905C104.73 224.888 104.638 224.865 104.553 224.831C104.496 224.808 104.439 224.779 104.388 224.751L103.556 224.272C103.146 224.033 102.815 223.463 102.815 222.99V91.0943C102.815 90.8552 102.895 90.5932 103.032 90.3652L105.344 91.6982C105.214 91.9317 105.128 92.1937 105.128 92.4272V224.323C105.128 224.728 105.367 224.927 105.693 224.831Z" fill="#E0E0E0"/>
<path d="M173.587 58.5763L171.286 57.2434C170.693 56.9014 169.913 56.8959 168.973 57.3115C166.284 58.4964 165.122 59.0322 163.732 59.6131C163.413 59.7445 163.088 59.8752 162.729 60.0176C162.188 60.2344 161.1 60.0517 161.436 58.1545L165.008 48.5322C164.99 48.5211 164.974 48.5149 164.956 48.5037L162.695 47.1937C162.592 47.1311 162.467 47.0853 162.319 47.0624C162.245 47.0512 162.159 47.0395 162.068 47.0395C160.604 47.0054 160.188 37.5714 160.176 37.2803C160.176 37.2747 160.176 37.2747 160.176 37.2747L160.074 37.2177L157.835 35.93C157.465 35.7132 157.032 35.6055 156.559 35.6055C155.932 35.6055 155.221 35.7993 154.44 36.2038C150.925 38.0496 147.375 43.5188 146.51 48.4294C145.963 51.5288 142.846 56.2969 141.046 58.0517C139.24 59.8175 139.12 61.2762 139.12 61.2762L137.718 69.2181L137.268 71.7588C136.937 73.656 134.995 75.4901 134.995 75.4901L127.743 80.9252C123.202 84.6967 121.92 88.5023 121.049 93.2134C121.049 93.2189 121.043 93.2419 121.043 93.2474C121.015 93.4128 121.049 93.5268 121.123 93.572C121.152 93.5893 121.18 93.5893 121.203 93.5776C121.203 93.5776 121.203 93.5776 121.203 93.572C121.209 93.5776 121.209 93.5776 121.214 93.572L122.143 93.0424L172.036 64.2673C172.236 64.1644 172.441 63.8455 172.492 63.5723C172.498 63.5667 172.498 63.555 172.504 63.5494C172.504 63.5382 172.498 63.5382 172.504 63.532C172.788 61.8114 173.62 58.593 173.62 58.593C173.61 58.5874 173.599 58.5819 173.587 58.5763ZM159.163 43.9976C158.627 47.0172 156.451 50.3842 154.287 51.5177C152.794 52.2981 151.706 51.8137 151.341 50.4412C150.68 50.6462 150.122 50.5607 149.706 50.2306C149.011 49.6837 155.369 38.7743 155.887 39.0134C156.349 39.224 156.679 39.6743 156.844 40.3178C158.627 39.7765 159.641 41.2859 159.163 43.9976Z" fill="#455A64"/>
<path opacity="0.5" d="M128.268 86.2287L124.634 84.1309C122.523 86.9064 121.677 89.8249 121.05 93.2136C121.05 93.2192 121.044 93.2421 121.044 93.2477C121.016 93.4131 121.05 93.5271 121.124 93.5723C121.153 93.5896 121.181 93.5896 121.204 93.5778C121.204 93.5778 121.204 93.5778 121.204 93.5723C121.21 93.5778 121.21 93.5778 121.215 93.5723L121.225 93.5667L124.092 91.2948L128.268 86.2287Z" fill="#37474F"/>
<path opacity="0.5" d="M137.028 72.5822L142.153 75.5404L144.466 62.1794L139.845 59.5117C139.183 60.5535 139.121 61.2758 139.121 61.2758L137.719 69.2176L137.269 71.7584C137.221 72.0365 137.135 72.3121 137.028 72.5822Z" fill="#37474F"/>
<path opacity="0.5" d="M148.94 42.0498C147.772 44.0529 146.887 46.2939 146.511 48.4296C146.276 49.7569 145.57 51.3896 144.698 52.961L149.096 55.4999L151.281 50.4537C150.648 50.6346 150.109 50.5504 149.707 50.2301C149.349 49.9489 150.857 46.9281 152.477 44.0913L148.94 42.0498Z" fill="#37474F"/>
<path d="M173.621 58.5935C173.61 58.5879 173.598 58.5823 173.587 58.5761C172.994 58.2398 172.22 58.2398 171.285 58.6505C167.987 60.1029 166.99 60.5817 165.036 61.3566C164.512 61.5672 163.458 61.3962 163.731 59.613C163.731 59.5734 163.742 59.5331 163.749 59.4935L164.199 56.9527L165.446 50.031C165.446 50.031 165.731 48.9427 165.008 48.5327C164.991 48.5215 164.974 48.5153 164.956 48.5042C164.808 48.4298 164.62 48.3846 164.381 48.3791C163.686 48.3617 162.9 47.8835 162.318 47.0628C161.652 46.1288 161.253 44.75 161.544 43.1037C162.068 40.1356 161.492 38.0563 160.177 37.2814C160.143 37.2585 160.108 37.2356 160.074 37.2188C159.226 36.7685 158.086 36.8429 156.753 37.5434C153.238 39.3892 149.689 44.8584 148.823 49.769C148.276 52.8684 145.16 57.6365 143.359 59.3913C141.553 61.1571 141.434 62.6158 141.434 62.6158L140.032 70.5577L139.582 73.0984C139.251 74.9956 137.303 76.8297 137.303 76.8297L130.057 82.2642C126.65 85.0955 125.032 88.0636 124.092 91.2937C124.092 91.2937 121.375 93.4015 121.204 93.5725C121.204 93.578 121.204 93.578 121.204 93.578C121.198 93.5836 121.198 93.5836 121.209 93.578L121.215 93.5725L122.143 93.0429L172.18 64.2789C172.18 64.2789 172.755 63.9655 172.88 63.8856C173.005 63.8112 175.022 61.9029 175.022 61.9029C174.937 60.2627 174.459 59.0952 173.621 58.5935ZM159.163 43.9981C158.627 47.0176 156.451 50.3847 154.286 51.5181C152.793 52.2986 151.705 51.8142 151.341 50.4416C151.187 49.8266 151.17 49.0344 151.335 48.1003C151.871 45.0808 154.053 41.7138 156.217 40.5859C156.434 40.4719 156.645 40.3808 156.844 40.3183C158.627 39.7769 159.641 41.2864 159.163 43.9981Z" fill="#37474F"/>
<path d="M159.163 43.998C158.628 47.0176 156.452 50.3846 154.287 51.5181C152.794 52.2985 151.706 51.8141 151.342 50.4416C151.541 50.379 151.752 50.2935 151.974 50.1796C154.139 49.0461 156.321 45.679 156.851 42.6595C157.016 41.7255 157.004 40.9333 156.845 40.3182C158.628 39.7768 159.642 41.2863 159.163 43.998Z" fill="#263238"/>
<path d="M157.075 40.4481C157.538 40.4481 157.879 40.6129 158.118 40.9529C159.015 42.2264 158.156 45.4764 157.784 46.5145C157.266 47.9607 153.912 51.3507 152.986 51.3501C152.166 51.311 151.567 50.5157 151.473 50.382C151.323 49.7619 151.323 48.9821 151.475 48.1249C152.004 45.1431 154.161 41.8176 156.283 40.712C156.492 40.6024 156.69 40.5169 156.872 40.4587C156.943 40.4512 157.01 40.4481 157.075 40.4481ZM157.075 40.3057C157.001 40.3057 156.925 40.31 156.845 40.3181C156.645 40.3806 156.435 40.4717 156.218 40.5856C154.053 41.7135 151.871 45.0806 151.336 48.1001C151.17 49.0342 151.188 49.8264 151.341 50.4414C151.341 50.4414 152.003 51.4461 152.98 51.4925C152.986 51.4925 152.993 51.4931 153 51.4931C154.002 51.4931 157.379 48.0735 157.919 46.5628C158.448 45.0837 159.626 40.305 157.075 40.3057Z" fill="#263238"/>
<path d="M121.211 93.579L172.179 64.2798C172.179 64.2798 172.757 63.9639 172.88 63.8884C173.004 63.8128 175.022 61.9014 175.022 61.9014L124.093 91.2947C124.093 91.2947 121.008 93.6855 121.211 93.579Z" fill="#263238"/>
<path d="M114.384 114.122V115.282C114.384 115.911 114.825 116.166 115.37 115.852L182.821 76.9123C183.366 76.5976 183.808 75.8327 183.808 75.2034V74.0396C183.808 73.4102 183.366 73.1551 182.821 73.4697L115.37 112.413C114.825 112.727 114.384 113.493 114.384 114.122Z" fill="#E0E0E0"/>
<path d="M114.384 121.125V122.285C114.384 122.914 114.825 123.169 115.37 122.855L182.821 83.9152C183.366 83.6006 183.808 82.8356 183.808 82.2063V81.0425C183.808 80.4132 183.366 80.158 182.821 80.4726L115.37 119.416C114.825 119.731 114.384 120.496 114.384 121.125Z" fill="#E0E0E0"/>
<path d="M114.384 128.09V129.25C114.384 129.879 114.825 130.134 115.37 129.819L182.821 90.8801C183.366 90.5654 183.808 89.8005 183.808 89.1712V88.0073C183.808 87.378 183.366 87.1228 182.821 87.4375L115.37 126.381C114.825 126.695 114.384 127.461 114.384 128.09Z" fill="#E0E0E0"/>
<path d="M114.384 143.516V144.675C114.384 145.305 114.825 145.56 115.37 145.245L182.821 106.306C183.366 105.991 183.808 105.226 183.808 104.597V103.433C183.808 102.804 183.366 102.549 182.821 102.863L115.37 141.807C114.825 142.122 114.384 142.887 114.384 143.516Z" fill="#E0E0E0"/>
<path d="M114.384 150.519V151.678C114.384 152.308 114.825 152.563 115.37 152.248L182.821 113.309C183.366 112.994 183.808 112.229 183.808 111.6V110.436C183.808 109.807 183.366 109.552 182.821 109.866L115.37 148.81C114.825 149.125 114.384 149.89 114.384 150.519Z" fill="#E0E0E0"/>
<path d="M114.384 157.484V158.643C114.384 159.272 114.825 159.528 115.37 159.213L182.821 120.274C183.366 119.959 183.808 119.194 183.808 118.565V117.401C183.808 116.772 183.366 116.516 182.821 116.831L115.37 155.775C114.825 156.089 114.384 156.854 114.384 157.484Z" fill="#E0E0E0"/>
<path d="M114.384 172.91V174.07C114.384 174.699 114.825 174.954 115.37 174.64L182.821 135.7C183.366 135.386 183.808 134.621 183.808 133.991V132.828C183.808 132.198 183.366 131.943 182.821 132.258L115.37 171.201C114.825 171.516 114.384 172.281 114.384 172.91Z" fill="#E0E0E0"/>
<path d="M114.384 179.914V181.073C114.384 181.703 114.825 181.958 115.37 181.643L182.821 142.704C183.366 142.389 183.808 141.624 183.808 140.995V139.832C183.808 139.202 183.366 138.947 182.821 139.262L115.37 178.205C114.825 178.519 114.384 179.284 114.384 179.914Z" fill="#E0E0E0"/>
<path d="M114.384 186.878V188.038C114.384 188.667 114.825 188.922 115.37 188.608L182.821 149.668C183.366 149.354 183.808 148.589 183.808 147.959V146.795C183.808 146.166 183.366 145.911 182.821 146.226L115.37 185.169C114.825 185.483 114.384 186.249 114.384 186.878Z" fill="#E0E0E0"/>
<path d="M149.096 187.813L183.806 167.772L183.808 168.441L149.096 188.481V187.813Z" fill="#E0E0E0"/>
<path d="M157.17 177.408C158.614 176.439 160.225 174.812 159.965 172.882C159.807 171.712 158.857 171.264 157.78 171.676C155.667 172.486 154.331 175.668 153.594 177.588C152.949 179.266 152.131 182.431 154.648 182.966C157.607 183.595 159.892 179.258 160.557 176.997C160.65 176.681 160.136 176.509 159.991 176.792C159.727 177.305 157.985 180.697 159.9 180.274C160.58 180.124 160.975 179.066 161.218 178.527C161.655 177.559 161.873 176.214 162.554 175.384C162.387 175.308 162.219 175.231 162.051 175.155C162.079 176.046 162.077 176.655 162.647 177.346C162.741 177.46 162.943 177.535 163.067 177.418C164.043 176.506 164.113 175.027 165.19 174.201C165.043 174.132 164.897 174.062 164.75 173.992C164.738 174.274 164.624 175.086 164.602 175.468C164.592 175.646 164.845 175.761 164.989 175.708C165.339 175.578 165.438 175.517 165.605 175.175C165.448 175.118 165.291 175.06 165.135 175.003C165.542 177.185 167.408 175.015 168.047 174.173C169.931 171.687 171.23 169.04 171.283 165.863C171.287 165.608 170.805 165.482 170.799 165.787C170.754 168.224 169.69 170.462 169.004 172.762C168.261 175.252 167.651 177.777 167.162 180.329C167.309 180.382 167.457 180.435 167.604 180.487C167.648 178.668 168.298 176.945 168.967 175.273C169.532 173.86 170.169 172.404 171.309 171.359C171.174 171.308 171.039 171.256 170.903 171.206C171.204 172.467 170.682 173.816 169.912 174.81C169.781 174.98 170.073 175.29 170.204 175.125C170.886 174.27 172.008 173.998 172.735 173.17C173.493 172.307 173.957 171.189 174.564 170.222C174.453 170.166 174.341 170.11 174.23 170.054C174.185 172.133 176.149 168.888 176.413 168.54C176.306 168.499 176.199 168.458 176.091 168.416C176.221 168.846 176.398 169.13 176.881 169.134C177.838 169.141 178.2 167.736 178.922 167.573C178.928 167.572 179.241 167.843 179.35 167.853C179.793 167.891 180.106 167.861 180.509 167.635C181.329 167.175 181.961 166.323 182.407 165.518C182.516 165.322 182.139 165.074 182.012 165.29C181.54 166.095 180.052 168.229 178.97 167.183C178.906 167.121 178.76 167.063 178.689 167.15C178.4 167.508 176.733 169.418 176.424 168.411C176.385 168.286 176.205 168.151 176.102 168.288C175.85 168.623 175.645 168.996 175.412 169.345C175.283 169.537 174.554 170.758 174.582 170.138C174.589 169.993 174.349 169.814 174.247 169.971C173.572 171.005 173.075 172.366 172.137 173.204C171.436 173.831 170.514 174.063 169.911 174.81C170.008 174.915 170.106 175.02 170.203 175.125C171.054 174.042 171.667 172.597 171.334 171.212C171.293 171.039 171.066 170.932 170.928 171.058C169.768 172.122 169.116 173.621 168.542 175.058C167.859 176.77 167.2 178.52 167.152 180.379C167.147 180.572 167.546 180.786 167.594 180.538C168.128 177.788 168.79 175.057 169.632 172.385C170.31 170.231 171.238 168.154 171.282 165.862C171.121 165.837 170.959 165.811 170.798 165.786C170.759 168.271 169.996 170.337 168.65 172.41C168.298 172.951 167.934 173.487 167.539 173.998C167.363 174.226 165.827 176.231 165.628 175.066C165.6 174.898 165.271 174.666 165.158 174.895C165.009 175.026 164.86 175.158 164.711 175.289C164.84 175.369 164.969 175.449 165.098 175.529C165.128 175.027 165.226 174.553 165.25 174.049C165.259 173.852 164.954 173.73 164.81 173.84C163.717 174.677 163.639 176.157 162.65 177.067C162.79 177.091 162.93 177.115 163.07 177.139C162.729 176.548 162.574 175.925 162.603 175.272C162.599 175.057 162.268 174.842 162.101 175.043C161.344 175.949 161.11 177.39 160.611 178.445C160.339 179.022 159.35 180.558 159.687 178.918C159.823 178.252 160.247 177.594 160.556 176.995C160.367 176.927 160.179 176.859 159.99 176.79C159.405 178.76 157.852 181.751 155.727 182.387C153.011 183.201 153.483 179.837 153.981 178.341C154.556 176.616 155.455 174.935 156.568 173.495C156.783 173.217 157.005 172.927 157.266 172.691C157.817 172.192 157.983 172.096 158.75 172.508C159.555 172.94 159.552 173.194 159.342 174.019C159.238 174.426 159.052 174.834 158.836 175.192C158.371 175.959 157.705 176.581 157.013 177.137C156.914 177.218 157.057 177.484 157.17 177.408Z" fill="#455A64"/>
<path d="M222.094 158.766C219.85 158.235 217.383 159.83 215.939 163.353C214.494 166.877 211.607 175.86 211.007 178.215C210.738 179.269 218.739 188.601 218.452 188.461C218.364 188.418 221.059 183.909 221.059 183.909L217.176 177.933L219.608 171.445L222.094 158.766Z" fill="#B16668"/>
<path d="M216.922 242.262C216.618 242.377 216.541 242.956 216.496 244.108C216.461 244.979 216.274 246.5 217.295 246.803C218.315 247.107 219.81 246.952 220.464 246.131C221.28 245.105 221.832 244.203 222.997 242.952C224.008 241.867 225.101 240.855 225.509 239.333C225.877 237.958 225.571 237.362 224.632 236.962C223.343 236.413 221.316 238.208 220.305 238.492C219.435 238.735 217.226 242.147 216.922 242.262Z" fill="#263238"/>
<path d="M216.922 241.195V242.609C216.922 242.609 218.392 243.739 220.495 242.706C220.556 242.57 220.866 240.684 220.866 240.684L216.922 241.195Z" fill="#B16668"/>
<path d="M227.442 249.773C227.442 249.773 227.036 251.003 226.818 252.078C226.644 252.933 226.395 254.361 226.694 255.004C226.993 255.647 228.161 256.062 229.971 256.048C231.143 256.039 232.97 256.835 234.221 257.533C235.513 258.254 236.915 258.257 238.281 258.096C239.892 257.907 241.56 256.973 241.82 256.306C242.081 255.639 241.746 255.319 237.951 253.702C237.916 253.687 233.949 251.895 232.113 249.868L227.442 249.773Z" fill="#263238"/>
<path d="M227.441 248.245C227.441 248.245 227.446 249.294 227.441 249.894C227.436 250.494 228.144 251.387 229.977 251.322C231.264 251.276 232.163 250.93 232.112 249.869V248.341L227.441 248.245Z" fill="#B16668"/>
<path d="M215.53 221.597C216.178 216.977 217.256 214.326 217.256 214.326C217.256 214.326 216.459 208.071 215.996 202.061C215.167 191.294 215.833 187.773 217.95 182.943C217.95 182.943 236.02 181.111 236.572 188.621C237.258 197.973 236.347 216.046 236.099 219.35C235.851 222.654 235.543 224.142 234.375 231.046C233.485 236.299 232.113 248.341 232.113 248.341C229.714 249.637 227.442 248.246 227.442 248.246C227.442 248.246 225.965 233.209 226.119 229.396C226.309 224.741 227.565 221.075 227.565 221.075C227.565 221.075 226.445 205.835 226.118 203.408C226.118 203.408 225.553 208.243 225.305 211.547C225.057 214.851 224.076 218.007 223.12 224.143C222.291 229.466 220.751 241.365 220.751 241.365C218.353 242.661 216.922 241.195 216.922 241.195C216.922 241.195 214.883 226.216 215.53 221.597Z" fill="#4A5F98"/>
<g opacity="0.35">
<path d="M215.53 221.597C216.178 216.977 217.256 214.326 217.256 214.326C217.256 214.326 216.459 208.071 215.996 202.061C215.167 191.294 215.833 187.773 217.95 182.943C217.95 182.943 236.02 181.111 236.572 188.621C237.258 197.973 236.347 216.046 236.099 219.35C235.851 222.654 235.543 224.142 234.375 231.046C233.485 236.299 232.113 248.341 232.113 248.341C229.714 249.637 227.442 248.246 227.442 248.246C227.442 248.246 225.965 233.209 226.119 229.396C226.309 224.741 227.565 221.075 227.565 221.075C227.565 221.075 226.445 205.835 226.118 203.408C226.118 203.408 225.553 208.243 225.305 211.547C225.057 214.851 224.076 218.007 223.12 224.143C222.291 229.466 220.751 241.365 220.751 241.365C218.353 242.661 216.922 241.195 216.922 241.195C216.922 241.195 214.883 226.216 215.53 221.597Z" fill="black"/>
</g>
<path d="M231.349 156.334L230.5 163.317L224.361 162.762L225.062 155.012L231.349 156.334Z" fill="#B16668"/>
<path d="M217.624 162.265C218.3 160.428 220.594 158.382 222.954 158.821C223.569 158.935 224.109 159.025 224.689 159.141C224.742 160.75 227.773 161.582 230.795 160.607C231.703 160.867 232.534 161.132 233.289 161.402C235.45 162.174 236.319 165.763 236.366 171.767C236.414 177.772 237.052 192.748 237.052 192.748L234.526 193.542L233.346 189.162L232.87 194.409C230.136 195.098 227.265 195.048 224.146 194.367C217.653 192.949 215.632 189.445 215.632 189.445C215.632 189.445 216.43 184.01 220.262 178.094C217.009 169.438 216.623 164.991 217.624 162.265Z" fill="#EBEBEB"/>
<path d="M235.91 147.465C235.91 147.465 237.197 145.021 235.448 142.274C233.387 139.039 229.414 138.487 224.707 139.749C222.373 140.375 219.11 142.854 218.817 147.33C218.592 150.783 228.22 153.33 228 155.695L235.91 147.465Z" fill="#263238"/>
<path d="M236.118 148.776C236.118 148.776 237.424 150.872 237.241 151.085C237.058 151.298 236.186 151.507 236.186 151.507L236.118 148.776Z" fill="#9A4A4D"/>
<path d="M232.132 142.141C233.438 142.861 235.692 144.186 236.149 149.078C236.617 154.1 235.456 155.81 234.756 156.448C234.284 156.878 231.902 156.975 230.673 156.556C229.134 156.033 225.818 154.281 224.312 151.655C222.541 148.565 222.267 144.503 224.449 142.973C227.52 140.819 231.028 141.532 232.132 142.141Z" fill="#B16668"/>
<path d="M232.517 142.361C232.517 142.361 233.548 146.959 232.088 149.807C232.088 149.807 231.326 148.003 229.781 148.473C228.225 148.946 228.311 151.006 229.496 152.09C230.682 153.173 231.873 152.662 231.873 152.662C231.873 152.662 231.167 154.599 229.577 156.129C229.577 156.129 225.001 158.17 221.038 153.697C217.443 149.639 218.111 142.561 223.618 140.891C229.124 139.223 232.517 142.361 232.517 142.361Z" fill="#263238"/>
<path d="M219.469 142.835C219.921 143.224 219.972 143.905 219.583 144.356L217.947 142.949C218.336 142.498 219.018 142.447 219.469 142.835Z" fill="#263238"/>
<path d="M248.826 172.462C249.717 171.444 250.058 169.18 251.245 167.633C252.404 166.122 252.865 164.949 253.334 165.626C253.954 166.521 252.555 168.313 252.865 168.492C253.176 168.671 254.339 171.032 254.456 172.345C254.574 173.657 251.1 176.954 251.1 176.954L248.826 172.462Z" fill="#B16668"/>
<path d="M252.769 168.291C252.769 168.291 256.969 167.926 257.581 168.279C258.193 168.632 258.008 170.461 257.581 171.576C257.153 172.691 255.011 173.417 253.023 174.763C253.018 174.571 252.769 168.291 252.769 168.291Z" fill="#B16668"/>
<path d="M232.753 161.217C234.558 161.845 236.137 162.571 237.822 165.737C239.986 169.805 243.922 177.772 243.922 177.772L248.826 172.463C248.826 172.463 249.54 171.457 250.868 173.65C252.195 175.844 251.609 176.451 251.609 176.451C251.609 176.451 245.902 184.095 244.855 185.067C243.807 186.04 242.087 185.283 240.964 183.754C239.842 182.224 232.753 173.36 232.753 173.36C232.753 173.36 228.881 168.269 232.753 161.217Z" fill="#B16668"/>
<path opacity="0.2" d="M226.118 203.41L225.776 199.757C225.776 199.757 223.123 199.501 220.264 197.671C220.264 197.671 221.437 199.552 224.659 200.409L224.995 205.055L225.193 212.671L226.118 203.41Z" fill="black"/>
<path d="M213.253 160.245C216.762 160.245 219.608 157.399 219.608 153.89V144.235C216.469 143.219 213.253 145.558 213.253 148.857V160.245Z" fill="#263238"/>
<path d="M236.509 178.072C236.509 178.072 232.983 173.528 231.859 171.697L236.631 181.781L236.509 178.072Z" fill="#E0E0E0"/>
<path d="M267.412 140.739C266.073 144.681 263.218 156.448 263.218 156.448C263.218 156.448 257.769 163.693 256.274 165.073C255.441 165.841 253.563 167.223 253.563 167.223L255.125 168.372C255.125 168.372 257.73 167.58 257.943 169.014C260.853 166.717 264.06 163.622 265.626 161.951C266.224 161.313 266.644 160.532 266.843 159.681L269.175 149.675C269.175 149.675 269.16 141.624 270.41 140.567C271.659 139.511 271.159 137.131 271.159 137.131C270.324 137.156 268.463 137.644 267.412 140.739Z" fill="#FFA8A7"/>
<path d="M271.219 136.738C271.219 136.738 271.915 138.696 272.593 139.852C273.139 140.785 268.967 157.604 268.691 158.854C268.415 160.104 260.33 167.393 260.33 167.393C260.33 167.393 258.283 166.728 257.095 164.147L262.932 156.558C262.932 156.558 264.744 148.588 265.702 144.937C266.659 141.287 267.671 137.131 271.219 136.738Z" fill="#4A5F98"/>
<path opacity="0.1" d="M271.219 136.738C271.219 136.738 271.915 138.696 272.593 139.852C273.139 140.785 268.967 157.604 268.691 158.854C268.415 160.104 260.33 167.393 260.33 167.393C260.33 167.393 258.283 166.728 257.095 164.147L262.932 156.558C262.932 156.558 264.744 148.588 265.702 144.937C266.659 141.287 267.671 137.131 271.219 136.738Z" fill="black"/>
<path d="M288.293 215.765H284.264V222.662H288.293V215.765Z" fill="#FFA8A7"/>
<path d="M271.814 217.439L267.787 217.577L267.586 210.278L271.814 210.14V217.439Z" fill="#FFA8A7"/>
<path d="M287.726 166.528C287.726 170.375 287.991 192.745 287.991 192.745C288.086 193.852 289.151 195.821 289.234 199.808C289.354 205.591 288.465 219.213 288.465 219.213C288.465 219.213 286.509 220.356 283.979 219.301C283.979 219.301 280.814 200.034 280.092 194.31C279.462 189.315 277.288 175.978 277.288 175.978L274.209 192.865C274.209 192.865 274.951 195.844 274.708 199.268C274.52 201.916 272.068 215.177 272.068 215.177C272.068 215.177 270.171 216.464 267.416 215.534C267.416 215.534 267.176 194.717 267.13 192.288C267.076 189.518 268.284 165.695 268.284 165.695L287.726 166.528Z" fill="#37474F"/>
<path d="M284.264 220.673V220.097C284.048 220.092 283.914 220.307 283.832 220.826C283.773 221.197 283.718 221.477 283.596 221.965C283.409 222.712 283.241 223.168 282.892 224.027C282.322 225.431 281.844 225.954 280.54 227.595C280.23 227.984 279.532 228.602 279.289 229.036C279.046 229.469 278.96 230.675 279.374 230.952C280.895 231.966 283.205 231.994 284.839 231.515C286.095 231.147 287.003 230.143 287.212 228.849C287.272 228.478 287.249 228.098 287.292 227.725C287.389 226.872 287.817 226.093 288.301 225.384C288.582 224.973 288.887 224.571 289.075 224.11C289.414 223.282 289.142 222.351 288.926 221.526C288.739 220.813 288.537 220.03 288.294 220.097C288.293 220.183 288.294 220.536 288.294 220.536C288.001 220.86 287.192 221.182 286.279 221.217C285.689 221.239 284.26 221.122 284.264 220.673Z" fill="#263238"/>
<path d="M267.744 216.335C267.535 216.343 267.365 216.638 266.903 217.138C266.346 217.741 265.433 218.392 264.533 218.843C263.024 219.598 260.091 220.76 258.764 221.357C257.934 221.731 257.973 222.732 258.831 223.303C259.688 223.873 261.757 224.283 264.243 223.728C265.597 223.425 267.359 222.175 268.475 222.242C269.59 222.309 271.677 222.293 272.501 221.726C273.324 221.159 272.994 219.946 272.762 218.905C272.508 217.768 272.19 215.995 271.814 216.073V216.465C271.33 217.198 268.83 217.497 267.767 216.957L267.744 216.335Z" fill="#263238"/>
<path d="M277.288 175.979C277.288 175.979 274.068 175.071 271.678 172.762C271.678 172.762 272.76 174.788 275.979 176.675L274.422 191.695L277.288 175.979Z" fill="#263238"/>
<path d="M280.741 137.011C282.11 137.34 284.873 137.792 285.493 140.525C286.238 143.804 286.48 150.946 286.48 150.946L286.734 166.838C283.96 168.859 273.769 169.959 267.93 165.695C267.93 165.695 268.644 146.612 268.644 143.641C268.644 140.671 270.295 137.102 274.851 136.838L280.741 137.011Z" fill="#F5F5F5"/>
<path d="M274.916 136.531C274.916 136.531 272.868 138.157 272.313 140.56C271.759 142.963 271.67 169.8 271.67 169.8C271.67 169.8 268.821 169.274 267.486 168.226C267.486 168.226 267.659 147.041 267.93 143.54C268.342 138.228 268.298 136.697 274.912 136.137L274.916 136.531Z" fill="#4A5F98"/>
<path d="M281.941 136.136C281.941 136.133 278.144 138.473 278.102 147.766C278.066 155.802 277.797 169.8 277.797 169.8C277.797 169.8 284.084 170.723 288.066 168.344C288.066 168.344 288.541 148.858 288.465 145.84C288.379 142.385 287.57 137.919 286.463 137.474C284.446 136.665 281.941 136.136 281.941 136.136Z" fill="#4A5F98"/>
<path d="M296.064 157.48C292.285 142.031 289.49 136.878 284.899 136.938C283.558 138.54 283.929 143.38 286.047 146.317C286.047 146.317 290.77 156.282 291.524 159.823C292.186 162.935 292.936 166.85 292.888 169.526C292.88 169.999 292.684 170.45 292.363 170.798C291.501 171.733 291.497 172.486 290.938 173.52C290.501 174.33 290.022 174.632 290.159 174.814C290.334 175.048 290.888 175.353 291.576 174.919C291.923 174.7 292.148 174.444 292.651 173.888C292.651 173.888 292.514 175.142 291.799 176.754C290.829 178.94 291.065 180.056 294.016 179.277C295.865 178.789 297.026 177.249 297.303 172.805C297.383 171.525 297.504 169.505 297.352 167.887C296.958 163.671 296.673 159.967 296.064 157.48Z" fill="#FFA8A7"/>
<path d="M284.114 136.685C284.114 136.685 287.157 136.547 288.804 138.213C290.452 139.88 292.677 143.385 294.832 151.05C296.987 158.716 297.646 164.309 297.755 168.624C297.755 168.624 295.055 169.884 292.564 168.446C292.564 168.446 291.461 161.778 290.482 158.23C289.504 154.683 285.854 147.203 285.854 147.203C285.854 147.203 282.367 142.022 284.114 136.685Z" fill="#4A5F98"/>
<path opacity="0.1" d="M284.114 136.685C284.114 136.685 287.157 136.547 288.804 138.213C290.452 139.88 292.677 143.385 294.832 151.05C296.987 158.716 297.646 164.309 297.755 168.624C297.755 168.624 295.055 169.884 292.564 168.446C292.564 168.446 291.461 161.778 290.482 158.23C289.504 154.683 285.854 147.203 285.854 147.203C285.854 147.203 282.367 142.022 284.114 136.685Z" fill="black"/>
<path opacity="0.1" d="M282.367 141.219L280.628 143.371L281.497 145.821L279.212 151.679L281.968 145.821L281.003 143.509L282.367 141.219Z" fill="black"/>
<path opacity="0.1" d="M270.101 140.526L270.479 142.751L268.973 144.712L271.067 151.307L269.446 144.785L270.835 142.952L270.101 140.526Z" fill="black"/>
<path d="M279.692 124.655C280.182 121.636 278.132 118.792 275.113 118.302C272.094 117.812 269.25 119.862 268.76 122.88C268.27 125.899 270.32 128.743 273.339 129.233C276.358 129.723 279.202 127.673 279.692 124.655Z" fill="#263238"/>
<path d="M283.792 127.705C283.792 127.705 282.895 131.921 282.535 132.613C282.175 133.306 281.432 133.503 281.432 133.503L281.494 130.537L283.792 127.705Z" fill="#263238"/>
<path d="M282.666 121.666C282.666 121.666 283.632 121.501 284.385 122.271C285.124 123.026 284.711 125.39 283.792 127.705L282.102 127.899L282.666 121.666Z" fill="#263238"/>
<path d="M281.596 127.901C281.934 128.103 282.418 127.452 282.836 127.015C283.254 126.578 284.619 125.98 285.299 127.415C285.993 128.876 284.698 130.807 283.624 131.145C281.773 131.726 281.495 130.538 281.495 130.538L281.358 137.42C280.078 139.06 277.203 140.989 275.655 140.714C274.419 140.494 274.15 138.406 275.331 137.039L275.336 135.007C275.336 135.007 273.659 135.261 272.841 135.135C271.479 134.924 270.622 133.85 270.21 132.377C269.547 130.01 269.295 128.099 269.858 123.444C270.474 118.342 276.408 118.288 279.613 120.306C282.818 122.322 281.596 127.901 281.596 127.901Z" fill="#FFA8A7"/>
<path d="M281.596 128.471C281.766 128.474 282.414 127.399 282.836 127.015C283.421 126.483 282.667 121.666 282.667 121.666C282.667 121.666 283.39 120.305 282.265 119.066C281.464 118.185 280.347 117.109 276.713 117.538C274.123 117.844 271.304 118.652 269.026 117.533C268.684 118.95 268.96 120.531 270.376 121.651C270.376 121.651 271.2 122.183 273.369 122.447C275.537 122.71 278.915 122.396 279.376 122.333C280.005 122.247 280.139 122.856 280.478 124.521C280.776 125.983 281.023 128.46 281.596 128.471Z" fill="#263238"/>
<path d="M282.663 122.041L284.712 120.941C284.421 120.354 283.726 120.124 283.161 120.428C282.595 120.732 282.372 121.454 282.663 122.041Z" fill="#263238"/>
<path d="M275.336 135.006C275.336 135.006 278.375 134.394 279.437 133.829C280.148 133.451 280.734 132.796 280.906 132.376C280.906 132.376 280.707 133.278 280.071 134.09C279.294 135.083 275.336 135.814 275.336 135.814V135.006Z" fill="#F28F8F"/>
<path d="M276.066 127.141C276.066 127.49 276.339 127.773 276.675 127.772C277.012 127.772 277.284 127.487 277.284 127.138C277.284 126.789 277.012 126.506 276.675 126.507C276.339 126.508 276.066 126.792 276.066 127.141Z" fill="#263238"/>
<path d="M276.712 124.841L278.014 125.56C278.207 125.186 278.071 124.722 277.711 124.523C277.352 124.325 276.904 124.467 276.712 124.841Z" fill="#263238"/>
<path d="M275.612 131.348L274.222 131.869C274.359 132.267 274.782 132.474 275.166 132.33C275.55 132.186 275.749 131.746 275.612 131.348Z" fill="#F28F8F"/>
<path d="M270.636 125.349L271.824 124.434C271.581 124.094 271.119 124.023 270.791 124.275C270.463 124.528 270.393 125.008 270.636 125.349Z" fill="#263238"/>
<path d="M271.002 126.967C271.002 127.317 271.274 127.599 271.611 127.598C271.947 127.597 272.22 127.314 272.22 126.964C272.22 126.615 271.947 126.332 271.611 126.333C271.274 126.334 271.002 126.618 271.002 126.967Z" fill="#263238"/>
<path d="M274.104 126.39L273.904 130.052L271.992 129.4L274.104 126.39Z" fill="#F28F8F"/>
<path d="M273.442 140.292C273.816 141.18 274.505 141.541 275.755 141.682C277.004 141.822 278.522 141.203 279.211 140.479L277.657 138.932L275.686 140.416L275.519 138.763L273.442 140.292Z" fill="#4A5F98"/>
<path opacity="0.1" d="M273.442 140.292C273.816 141.18 274.505 141.541 275.755 141.682C277.004 141.822 278.522 141.203 279.211 140.479L277.657 138.932L275.686 140.416L275.519 138.763L273.442 140.292Z" fill="black"/>
<path d="M274.421 139.808C274.421 139.808 274.114 140.664 274.216 141.471C274.326 142.334 274.771 142.857 274.771 142.857C274.771 142.857 275.267 143.251 276.114 143.003C276.776 142.392 277.443 141.414 277.393 140.223L275.687 140.417L274.421 139.808Z" fill="#4A5F98"/>
<path d="M274.771 142.856C274.771 142.856 272.749 154.017 272.667 154.918C272.585 155.818 273.828 159.019 274.599 159.046C275.371 159.073 276.884 156.176 276.907 155.358C276.93 154.539 276.114 143.003 276.114 143.003L274.771 142.856Z" fill="#4A5F98"/>
<path opacity="0.1" d="M276.114 143.003C276.114 143.003 275.424 143.344 274.771 142.856L274.739 143.033C274.739 143.033 275.305 143.545 276.136 143.309L276.114 143.003Z" fill="black"/>
<path d="M275.687 140.417L281.384 136.076L281.41 134.789C281.41 134.789 282.734 135.291 283.031 137.629C282.22 139.515 280.749 141.124 278.588 142.356L277.392 140.222L275.687 140.417Z" fill="#E0E0E0"/>
<path d="M275.336 135.381C275.336 135.381 274.07 135.569 273.499 136.511C272.928 137.451 273.059 141.046 273.059 141.046L274.422 139.808L275.688 140.417C275.566 139.219 275.331 137.038 275.331 137.038L275.336 135.381Z" fill="#E0E0E0"/>
<path d="M253.105 174.805C253.675 173.975 253.849 173.431 254.007 172.259C254.165 171.087 257.377 169.831 257.478 170.703C257.579 171.576 257.874 172.304 256.886 173.359C255.898 174.414 254.575 175.588 253.105 174.805Z" fill="#FFA8A7"/>
<path d="M253.25 167.24C252.482 168.234 252.006 170.159 251.601 170.806C251.197 171.454 250.711 172.02 251.601 172.141C252.492 172.263 253.787 170.522 254.273 169.47C254.516 168.944 254.84 168.609 255.103 168.406C255.366 168.203 255.568 168.132 255.568 168.132C255.149 167.991 255.37 166.317 255.075 166.087C255.075 166.087 253.564 166.706 253.25 167.24Z" fill="#FFA8A7"/>
<g clip-path="url(#clip0_7857_125567)">
<path d="M297.746 46.9967C297.56 55.7448 299.405 65.7457 303.456 75.7307C307.505 85.7164 313.137 94.1491 319.345 100.249L326.549 118.008L337.275 113.634C351.421 107.777 354.809 83.1067 344.842 58.5312C334.875 33.9557 315.326 18.7841 301.179 24.641L290.453 29.0143L297.746 46.9967Z" fill="url(#paint0_linear_7857_125567)"/>
<path d="M334.115 62.9071C344.083 87.4817 340.695 112.152 326.548 118.01C312.401 123.867 292.853 108.693 282.885 84.1187C272.917 59.5441 276.305 34.8736 290.452 29.0158C304.599 23.158 324.147 38.3316 334.115 62.9071Z" fill="#F2F2F3"/>
<path d="M329.278 64.9092C337.363 84.8445 334.615 104.857 323.14 109.609C311.665 114.361 295.806 102.051 287.721 82.1154C279.635 62.1799 282.383 42.1678 293.859 37.4169C305.335 32.665 321.193 44.9729 329.278 64.9092Z" fill="#5BA46A"/>
<path d="M306.401 91.9876L302.801 93.4674C302.96 93.4015 303.117 93.3222 303.269 93.23L306.87 91.7501C306.718 91.8423 306.562 91.9218 306.401 91.9876Z" fill="#C6C0D0"/>
<path d="M287.459 59.785L291.06 58.3041C292.293 57.7972 293.775 58.2045 295.168 59.2862C296.45 60.2808 297.657 61.8476 298.527 63.7971L294.926 65.277C294.056 63.3275 292.849 61.7607 291.568 60.7661C290.174 59.6854 288.691 59.2779 287.459 59.785Z" fill="#D3E1FC"/>
<path d="M294.925 65.2777L298.526 63.7978L303.318 74.588L299.717 76.0679L294.925 65.2777Z" fill="#D3E1FC"/>
<path d="M322.137 81.7329L325.738 80.253L306.871 91.7501L303.27 93.2299L322.137 81.7329Z" fill="#D3E1FC"/>
<path d="M315.41 66.5354L319.011 65.0545C320.24 64.55 321.728 64.9522 323.129 66.0409L319.528 67.5208C318.126 66.4329 316.638 66.0298 315.41 66.5354Z" fill="#D3E1FC"/>
<path d="M319.528 67.5208L323.129 66.0409C324.334 66.9756 325.474 68.4171 326.332 70.2237C328.302 74.3793 328.038 78.8662 325.739 80.2521L322.138 81.733C324.437 80.3469 324.702 75.8592 322.731 71.7034C321.874 69.8972 320.733 68.4564 319.528 67.5208Z" fill="#D3E1FC"/>
<path d="M319.528 67.5205C320.733 68.4551 321.873 69.8967 322.731 71.7031C324.702 75.8589 324.437 80.3465 322.138 81.7327L303.27 93.2297C301.742 94.1583 299.788 93.7256 297.963 92.3091C296.456 91.1392 295.036 89.2979 294.017 86.9949L286.326 69.6896C284.456 65.4941 284.873 61.1001 287.243 59.8841C288.517 59.2305 290.092 59.6203 291.569 60.7659C292.85 61.7615 294.058 63.3273 294.927 65.2768L299.718 76.0668L315.02 66.7309C316.315 65.9497 317.974 66.3149 319.528 67.5205Z" fill="white"/>
</g>
<defs>
<linearGradient id="paint0_linear_7857_125567" x1="342.277" y1="111.596" x2="306.02" y2="22.6674" gradientUnits="userSpaceOnUse">
<stop offset="0.1108" stop-color="#A7D1FF"/>
<stop offset="0.6418" stop-color="#E3ECF5"/>
<stop offset="0.8136" stop-color="#E1EBF5"/>
<stop offset="0.8893" stop-color="#DAE8F7"/>
<stop offset="0.9459" stop-color="#CDE2F9"/>
<stop offset="0.993" stop-color="#BBDAFB"/>
<stop offset="1" stop-color="#B8D9FC"/>
</linearGradient>
<clipPath id="clip0_7857_125567">
<rect width="77.726" height="93.649" fill="white" transform="translate(281.731 19.6484) rotate(7.8192)"/>
</clipPath>
</defs>
</svg>
